<svg width="500" height="655" viewBox="0 0 500 655" fill="none" xmlns="http://www.w3.org/2000/svg">
<g clip-path="url(#clip0_3_738)">
<path d="M363.003 451.706V581.54L384.758 616.933L386.413 619.625H472.254L473.988 451.706H363.003Z" fill="#E6E6E6"/>
<path opacity="0.1" d="M363.003 451.706V581.54L384.758 616.933L386.093 451.706H363.003Z" fill="black"/>
<path d="M155.772 448.243V578.078L134.017 613.471L132.361 616.163H46.5207L44.7863 448.243H155.772Z" fill="#E6E6E6"/>
<path opacity="0.1" d="M155.772 448.243V578.078L134.017 613.471L132.682 448.243H155.772Z" fill="black"/>
<path d="M500 445.647V453.437H33.5143V442.184L76.8679 419.68H461.849L500 445.647Z" fill="#E6E6E6"/>
<path opacity="0.1" d="M500 445.647V453.437H33.5143V442.184L500 445.647Z" fill="black"/>
<path d="M100.279 484.597H79.4692L70.7985 478.538H109.817L100.279 484.597Z" fill="#3F3D56"/>
<path d="M100.279 509.699H79.4692L70.7985 503.64H109.817L100.279 509.699Z" fill="#3F3D56"/>
<path d="M100.279 545.187H79.4692L70.7985 539.128H109.817L100.279 545.187Z" fill="#3F3D56"/>
<path d="M100.279 580.675H79.4692L70.7985 574.616H109.817L100.279 580.675Z" fill="#3F3D56"/>
<path d="M418.495 488.059H439.305L447.976 482H408.957L418.495 488.059Z" fill="#3F3D56"/>
<path d="M418.495 513.161H439.305L447.976 507.102H408.957L418.495 513.161Z" fill="#3F3D56"/>
<path d="M418.495 548.649H439.305L447.976 542.59H408.957L418.495 548.649Z" fill="#3F3D56"/>
<path d="M418.495 584.137H439.305L447.976 578.078H408.957L418.495 584.137Z" fill="#3F3D56"/>
<path d="M432.666 269.539H257.477C256.606 269.539 255.745 269.71 254.941 270.042C254.137 270.375 253.407 270.862 252.791 271.476C252.176 272.09 251.688 272.819 251.355 273.622C251.022 274.424 250.851 275.285 250.851 276.153V393.96C250.851 394.828 251.022 395.689 251.355 396.491C251.688 397.294 252.176 398.023 252.791 398.637C253.407 399.251 254.137 399.738 254.941 400.071C255.745 400.403 256.606 400.574 257.477 400.574H323.98L321.488 416.453C321.488 416.453 307.25 424.005 317.261 424.227C327.273 424.449 374.439 424.227 374.439 424.227C374.439 424.227 383.56 424.227 369.099 416.231L366.755 400.574H432.666C433.536 400.574 434.398 400.403 435.202 400.071C436.006 399.738 436.736 399.251 437.351 398.637C437.967 398.023 438.455 397.294 438.787 396.491C439.12 395.689 439.292 394.828 439.292 393.96V276.153C439.292 275.285 439.12 274.424 438.787 273.622C438.455 272.819 437.967 272.09 437.351 271.476C436.736 270.862 436.006 270.375 435.202 270.042C434.398 269.71 433.536 269.539 432.666 269.539Z" fill="#3F3D56"/>
<path d="M432.951 276.535H257.192V374.7H432.951V276.535Z" fill="#F2F2F2"/>
<path d="M345.071 274.536C345.686 274.536 346.184 274.039 346.184 273.426C346.184 272.813 345.686 272.315 345.071 272.315C344.457 272.315 343.959 272.813 343.959 273.426C343.959 274.039 344.457 274.536 345.071 274.536Z" fill="#F2F2F2"/>
<path d="M345.071 395.799C347.406 395.799 349.298 393.91 349.298 391.579C349.298 389.249 347.406 387.359 345.071 387.359C342.737 387.359 340.844 389.249 340.844 391.579C340.844 393.91 342.737 395.799 345.071 395.799Z" fill="#F2F2F2"/>
<path d="M338.484 436.22V438.441H218.79V436.664L218.955 436.22L221.905 428.224H336.037L338.484 436.22Z" fill="#3F3D56"/>
<path d="M384.546 434.045C384.328 434.976 383.505 435.958 381.645 436.886C374.971 440.217 361.4 435.998 361.4 435.998C361.4 435.998 350.943 434.221 350.943 429.557C351.237 429.356 351.543 429.174 351.86 429.013C354.666 427.531 363.97 423.874 380.467 429.168C381.682 429.548 382.768 430.259 383.603 431.219C383.973 431.582 384.251 432.028 384.415 432.519C384.579 433.01 384.624 433.533 384.546 434.045Z" fill="#3F3D56"/>
<path opacity="0.1" d="M384.546 434.045C376.377 437.17 369.095 437.403 361.622 432.222C358.796 430.136 355.374 429.011 351.86 429.013C354.666 427.531 363.97 423.874 380.467 429.168C381.682 429.548 382.768 430.259 383.603 431.219C383.973 431.582 384.251 432.028 384.415 432.519C384.579 433.01 384.624 433.533 384.546 434.045Z" fill="black"/>
<path d="M374.303 432.222C375.901 432.222 377.196 431.824 377.196 431.334C377.196 430.843 375.901 430.445 374.303 430.445C372.706 430.445 371.411 430.843 371.411 431.334C371.411 431.824 372.706 432.222 374.303 432.222Z" fill="#F2F2F2"/>
<path opacity="0.1" d="M338.484 436.22V438.441H218.79V436.664L218.955 436.22H338.484Z" fill="black"/>
<path d="M66.5517 185C65.3369 184.901 64.1205 185.172 63.0637 185.778C62.026 186.487 61.3719 187.73 60.7043 188.887C58.1517 193.361 54.6961 197.258 50.5563 200.33C47.541 202.535 43.7074 205.284 44.2233 209.35C44.4955 210.693 44.9923 211.98 45.6931 213.158C48.4748 218.763 56.0656 223.095 55.3189 229.491C58.0826 224.873 54.386 222.589 57.1497 217.97C58.4658 215.771 60.7522 213.288 62.7393 214.669C63.4046 215.132 63.8415 215.961 64.5343 216.367C66.1873 217.335 67.9459 215.484 69.4091 214.173C74.4548 209.651 81.6302 210.836 87.9091 212.245C90.8733 212.91 94.1291 213.782 95.8814 216.611C98.1853 220.329 93.6925 224.345 92.5574 228.549C92.4647 228.907 92.4603 229.283 92.5446 229.643C92.6289 230.003 92.7993 230.338 93.0414 230.618C93.2834 230.898 93.5898 231.115 93.9344 231.252C94.279 231.388 94.6515 231.439 95.0201 231.4C96.9041 231.214 99.1359 231.062 99.2474 230.237C101.618 230.321 104.522 230.053 105.538 227.589C105.848 226.615 106.012 225.599 106.025 224.576C106.397 220.438 108.157 216.662 109.323 212.723C110.488 208.783 110.995 204.167 109.028 200.674C108.326 199.512 107.458 198.459 106.451 197.547C95.287 186.763 80.6092 184.984 66.5517 185Z" fill="#2F2E41"/>
<path d="M57.7468 237.57C57.7468 237.57 60.1747 257.768 51.2724 259.384C42.37 260.999 59.3654 288.468 59.3654 288.468L99.8307 293.315L90.119 260.999C90.119 260.999 83.6446 258.576 87.6911 242.418C91.7377 226.26 57.7468 237.57 57.7468 237.57Z" fill="#FFB8B8"/>
<path d="M33.063 584.562L36.3005 628.996H53.2953L48.4401 584.562H33.063Z" fill="#FFB8B8"/>
<path d="M157.696 500.541L160.124 537.704L178.738 529.625L171.454 498.925L157.696 500.541Z" fill="#FFB8B8"/>
<path d="M20.9235 414.904C20.9235 414.904 21.7328 461.761 26.5886 477.111C31.4445 492.462 30.6351 493.269 29.8258 495.693C29.0165 498.117 28.2072 496.501 28.2072 500.541C28.2072 504.58 26.5886 568.404 28.2072 574.059C29.8258 579.714 23.3514 589.409 28.2072 590.217C33.0631 591.025 55.7236 590.217 56.5329 585.37C57.3422 580.522 50.0585 578.906 53.2957 575.675C56.5329 572.443 61.3888 506.196 61.3888 506.196L72.719 460.146L93.761 435.909H138.273L152.031 489.23C152.031 489.23 146.366 504.58 150.412 504.58C154.459 504.58 178.738 509.427 178.738 491.654C178.738 473.88 170.645 421.367 169.026 419.751C167.408 418.135 169.836 412.48 167.408 410.056C164.98 407.632 136.654 390.667 126.133 387.435C115.612 384.203 100.853 380.357 100.853 380.357L20.9235 414.904Z" fill="#2F2E41"/>
<path d="M178.738 523.162C178.738 523.162 166.598 519.122 160.933 531.241C155.268 543.359 157.696 546.591 157.696 546.591C157.696 546.591 176.31 553.054 179.547 549.822C180.956 548.416 185.428 547.928 190.032 547.825C197.043 547.667 198.909 537.765 192.287 535.459C192.089 535.39 191.889 535.331 191.687 535.28C185.212 533.664 178.738 523.162 178.738 523.162Z" fill="#2F2E41"/>
<path d="M75.9562 250.901C89.3652 250.901 100.235 240.049 100.235 226.664C100.235 213.278 89.3652 202.427 75.9562 202.427C62.5472 202.427 51.6771 213.278 51.6771 226.664C51.6771 240.049 62.5472 250.901 75.9562 250.901Z" fill="#FFB8B8"/>
<path d="M44.3933 269.482C44.3933 269.482 84.0492 277.561 93.7609 264.635C103.473 251.709 107.519 300.99 107.519 300.99L112.375 352.696L105.091 380.972C105.091 380.972 67.0538 411.672 54.9143 414.096C42.7747 416.519 24.1606 418.135 24.1606 418.135C24.1606 418.135 29.8258 328.459 29.8258 326.843C29.8258 325.227 44.3933 269.482 44.3933 269.482Z" fill="#F5A006"/>
<path d="M56.4536 254.33C56.4536 254.33 47.6305 249.285 45.2026 254.132C42.7747 258.98 20.1142 271.098 17.6862 271.098C15.2583 271.098 22.5421 338.153 19.3048 346.232C16.0676 354.311 0.69083 413.288 9.59319 418.135C18.4955 422.982 12.0211 413.288 20.9235 425.406C29.8258 437.525 73.5283 437.525 75.9562 432.677C78.3841 427.83 56.5329 391.475 60.5794 357.543C64.6259 323.611 71.1004 276.753 65.4353 270.29C59.7701 263.827 56.4536 254.33 56.4536 254.33Z" fill="#2F2E41"/>
<path d="M85.6679 259.787L86.7952 255.915C86.7952 255.915 120.468 267.059 122.087 274.33C123.705 281.601 122.896 332.498 117.231 336.538C111.566 340.577 103.473 347.04 109.138 356.735C114.803 366.43 121.277 376.932 126.133 377.74C130.989 378.548 139.891 384.203 137.463 389.859C135.036 395.514 105.901 385.011 105.901 385.011C105.901 385.011 86.4772 370.469 87.2865 347.848C88.0958 325.227 85.6679 259.787 85.6679 259.787Z" fill="#2F2E41"/>
<path d="M113.994 355.119L94.5702 391.475C94.5702 391.475 66.2445 420.559 82.4307 423.79C98.6168 427.022 107.519 397.13 107.519 397.13L128.561 367.238L113.994 355.119Z" fill="#FFB8B8"/>
<path d="M67.7344 191.342C66.7558 191.269 65.7755 191.459 64.895 191.891C64.0988 192.472 63.4427 193.223 62.9744 194.089C60.8158 197.33 58.0019 200.085 54.7135 202.176C52.2589 203.735 49.1382 205.678 49.5582 208.552C49.7862 209.515 50.1919 210.428 50.7546 211.243C53.0269 215.245 53.9314 219.877 53.3315 224.438L60.0808 214.645C61.1522 213.09 63.0134 211.335 64.631 212.312C65.1726 212.639 65.5282 213.225 66.0922 213.512C67.4378 214.196 68.8694 212.888 70.0605 211.961C74.1679 208.765 80.009 209.602 85.1202 210.598C87.5332 211.068 90.1836 211.685 91.6101 213.684C93.9805 217.006 91.5053 221.805 92.8888 225.643C93.2761 225.372 93.6049 225.027 93.856 224.627C94.107 224.227 94.275 223.781 94.3501 223.315C96.2797 223.374 98.644 223.185 99.4707 221.443C99.7222 220.761 99.8562 220.041 99.8671 219.314C100.171 216.389 101.603 213.72 102.552 210.936C103.501 208.151 103.913 204.889 102.312 202.42C101.726 201.584 101.019 200.839 100.214 200.21C91.1262 192.587 79.1778 191.33 67.7344 191.342Z" fill="#2F2E41"/>
<path d="M113.994 271.098L121.534 273.096C121.534 273.096 139.082 317.956 135.035 348.656C130.989 379.356 128.561 372.893 128.561 372.893C128.561 372.893 122.087 358.351 107.519 361.582L113.994 271.098Z" fill="#2F2E41"/>
<path d="M34.1843 623.124C32.2327 625.771 32.624 629.556 30.8952 632.353C29.3967 634.778 26.5726 636.05 24.6983 638.198C24.1002 638.912 23.567 639.678 23.105 640.486C21.3663 643.394 19.9531 647.12 21.6655 650.043C23.043 652.394 25.9385 653.313 28.594 653.939C31.9504 654.731 35.4377 655.364 38.8329 654.759C42.228 654.154 45.5462 652.079 46.7567 648.855C46.9947 648.045 47.2775 647.248 47.604 646.469C49.4442 642.852 55.2162 642.813 57.0996 639.219C58.4175 636.703 57.206 633.663 55.9949 631.095L52.2961 623.25C51.0687 620.647 46.0927 622.144 43.4986 621.52C40.1154 620.707 36.6182 619.81 34.1843 623.124Z" fill="#2F2E41"/>
<path d="M7.16528 371.277L41.1561 423.79C41.1561 423.79 62.198 450.451 68.6725 438.333C75.1469 426.214 46.0119 406.017 46.0119 406.017L24.1607 365.622L7.16528 371.277Z" fill="#FFB8B8"/>
<path d="M24.1606 272.714L17.6862 271.098C17.6862 271.098 4.73733 275.137 1.50011 292.103C-1.7371 309.069 0.690804 376.932 4.73733 377.74C8.78386 378.548 24.7231 365.924 27.2744 368.601C29.8258 371.277 21.7327 357.543 24.1606 350.272C26.5885 343.001 24.1606 272.714 24.1606 272.714Z" fill="#2F2E41"/>
<path d="M328.436 308.776H307.519V313.803H328.436V308.776Z" fill="#F5A006"/>
<path d="M400.872 308.776H393.512V313.803H400.872V308.776Z" fill="#F5A006"/>
<path d="M415.592 308.776H408.232V313.803H415.592V308.776Z" fill="#F5A006"/>
<path d="M385.765 308.776H335.796V313.803H385.765V308.776Z" fill="#F5A006"/>
<path d="M302.095 341.257H281.178V346.284H302.095V341.257Z" fill="#F5A006"/>
<path d="M374.532 341.257H367.172V346.284H374.532V341.257Z" fill="#F5A006"/>
<path d="M389.251 341.257H381.891V346.284H389.251V341.257Z" fill="#F5A006"/>
<path d="M359.425 341.257H309.455V346.284H359.425V341.257Z" fill="#F5A006"/>
<path d="M388.476 319.99H367.559V325.017H388.476V319.99Z" fill="#F5A006"/>
<path d="M416.754 319.99H395.836V325.017H416.754V319.99Z" fill="#F5A006"/>
<path d="M288.538 319.99H281.178V325.017H288.538V319.99Z" fill="#F5A006"/>
<path d="M303.258 319.99H295.898V325.017H303.258V319.99Z" fill="#F5A006"/>
<path d="M360.587 319.99H310.617V325.017H360.587V319.99Z" fill="#F5A006"/>
<path d="M345.092 330.817H324.175V335.844H345.092V330.817Z" fill="#F5A006"/>
<path d="M316.815 330.817H295.898V335.844H316.815V330.817Z" fill="#F5A006"/>
<path d="M288.538 330.817H281.178V335.844H288.538V330.817Z" fill="#F5A006"/>
<path d="M416.754 330.817H409.394V335.844H416.754V330.817Z" fill="#F5A006"/>
<path d="M402.034 330.817H352.065V335.844H402.034V330.817Z" fill="#F5A006"/>
</g>
<path d="M370.331 40.908C358.594 29.3393 342.92 22.9544 327.203 18.8695C309.411 14.2455 291.012 11.5217 272.836 8.90841C253.893 6.18497 234.875 4.08432 215.782 2.60647C196.715 1.13643 177.613 0.294901 158.476 0.0818748C141.425 -0.109125 124.259 -0.115027 107.29 1.77681C91.3077 3.55867 75.3637 7.13437 60.9548 14.4752C48.1288 20.8689 37.3531 30.7319 29.8522 42.9435C22.9564 54.3102 18.8564 67.936 20.282 81.2973C20.9507 87.8766 22.9992 94.241 26.2939 99.9751C30.156 106.312 35.0779 111.938 40.8447 116.608C52.7504 126.661 66.9848 134.01 77.2269 145.958C79.9314 149.089 82.2938 152.499 84.274 156.13C85.7613 158.885 87.4341 161.255 90.2003 162.862C92.6694 164.271 95.5006 164.918 98.3367 164.72C101.173 164.522 103.887 163.489 106.137 161.751C109.327 159.247 111.618 155.387 114.087 152.21L122.696 141.131C123.319 140.138 124.04 139.21 124.848 138.362C125.429 137.882 124.471 138.304 124.661 138.185C124.766 138.119 124.949 138.156 125.063 138.109C125.637 137.945 126.224 137.835 126.819 137.783C133.105 136.627 139.404 135.546 145.717 134.54C169.027 130.779 192.488 127.676 216.047 126.004C228.19 125.034 240.378 124.744 252.553 125.133C268.297 125.777 283.823 128.904 299.509 130.252C316.398 131.704 334.137 131.504 350.051 124.992C362.788 119.779 374.614 111.01 381.511 98.8988C384.783 93.1705 386.722 86.7782 387.183 80.1973C388.025 65.2703 380.766 51.1942 370.331 40.908Z" fill="#E6E6E6"/>
<path d="M149.09 12.3159C146.087 12.3159 143.085 12.3318 140.086 12.3637C111.282 12.6693 81.5136 14.9981 58.9238 29.8451C38.873 43.0236 24.8202 72.3785 36.7128 93.4306C42.1739 103.097 52.0682 110.134 62.5435 117.583C66.6492 120.503 70.8957 123.523 74.9649 126.775C83.8541 133.878 92.225 143.412 97.0407 154.131L118.192 126.912L122.188 126.147C126.033 125.411 216.9 108.18 265.294 113.774C269.744 114.289 274.243 114.881 278.594 115.453C298.253 118.04 316.822 120.481 334.649 116.876C353.259 113.11 373.695 98.7367 374.911 79.5161C375.744 66.3574 367.183 51.9221 353.103 42.7403C338.865 33.4567 321.108 29.6238 304.14 26.4933C252.994 17.0692 201.097 12.3238 149.09 12.3159Z" fill="white"/>
<path d="M101.172 71.2969C101.172 69.7865 101.203 68.2135 101.266 66.5781C101.318 64.8594 101.401 63.3438 101.516 62.0312H101.484L99.7188 61.7031C99.6042 61.1927 99.5208 60.7604 99.4688 60.4062C99.4271 60.0417 99.4062 59.6667 99.4062 59.2812C99.4062 59.0104 99.4115 58.8021 99.4219 58.6562C99.6406 58.375 99.974 58.0938 100.422 57.8125C100.88 57.5208 101.411 57.276 102.016 57.0781C102.62 56.8802 103.245 56.7812 103.891 56.7812C105.214 56.7812 106.198 57.1198 106.844 57.7969C107.49 58.474 107.781 59.4844 107.719 60.8281L107.672 62.1875C107.63 64.4688 107.536 66.3229 107.391 67.75H112.703C112.734 65.6771 112.828 63.7656 112.984 62.0156H112.953L110.719 61.6875C110.604 61.1771 110.521 60.7448 110.469 60.3906C110.427 60.026 110.406 59.651 110.406 59.2656C110.406 58.9948 110.411 58.7865 110.422 58.6406C110.641 58.3698 111.016 58.0885 111.547 57.7969C112.078 57.5052 112.688 57.2604 113.375 57.0625C114.073 56.8646 114.76 56.7656 115.438 56.7656C116.76 56.7656 117.771 57.1094 118.469 57.7969C119.177 58.474 119.531 59.4792 119.531 60.8125C119.531 64.5417 118.953 69.7656 117.797 76.4844L120.109 75.4844C120.901 76.1719 121.354 77.099 121.469 78.2656C121.469 78.3385 121.224 78.6406 120.734 79.1719C120.255 79.6927 119.625 80.1823 118.844 80.6406C118.073 81.0885 117.193 81.3125 116.203 81.3125C115.151 81.3125 114.281 81.0312 113.594 80.4688C112.917 79.9062 112.583 78.9219 112.594 77.5156V76.5C112.594 74.7708 112.63 73.3333 112.703 72.1875C112.464 72.2083 112.099 72.2188 111.609 72.2188C110.891 72.2188 109.833 72.1562 108.438 72.0312C107.771 71.9688 107.297 71.9271 107.016 71.9062C107.047 72.9583 107.125 74.0052 107.25 75.0469C107.375 76.0781 107.536 77.2448 107.734 78.5469C107.859 79.3698 107.948 79.9896 108 80.4062C107.573 80.6667 106.896 80.8802 105.969 81.0469C105.042 81.2135 104.255 81.2969 103.609 81.2969C103.286 81.2969 102.979 81.2708 102.688 81.2188C102.406 81.1667 102.094 81.0885 101.75 80.9844C101.365 78.5781 101.172 75.349 101.172 71.2969ZM122.672 71.9219C122.672 70.1198 122.974 68.5104 123.578 67.0938C124.182 65.6771 125.115 64.5573 126.375 63.7344C127.646 62.901 129.229 62.4844 131.125 62.4844C132.115 62.4844 133.104 62.6042 134.094 62.8438C135.083 63.0729 135.922 63.4583 136.609 64C137.245 64.5104 137.703 65.1875 137.984 66.0312C138.276 66.8646 138.422 67.7917 138.422 68.8125C138.422 69.4896 138.365 70.1823 138.25 70.8906C138.125 71.099 137.88 71.375 137.516 71.7188C137.151 72.0521 136.724 72.3802 136.234 72.7031C135.745 73.026 135.271 73.276 134.812 73.4531C134.375 73.4844 133.922 73.5 133.453 73.5C132.63 73.5 131.797 73.4635 130.953 73.3906C130.109 73.3177 129.37 73.2344 128.734 73.1406C128.818 74.026 129.089 74.7969 129.547 75.4531C130.005 76.1094 130.734 76.4375 131.734 76.4375C131.828 76.4375 131.979 76.4271 132.188 76.4062C132.823 76.3438 133.562 76.1771 134.406 75.9062C135.26 75.625 136.109 75.3021 136.953 74.9375C137.349 75.3333 137.641 75.7292 137.828 76.125C138.016 76.5208 138.146 77.0885 138.219 77.8281C137.896 78.2031 137.37 78.6615 136.641 79.2031C135.922 79.7448 135.042 80.2344 134 80.6719C132.958 81.099 131.87 81.3125 130.734 81.3125C129.026 81.3125 127.562 80.901 126.344 80.0781C125.135 79.2448 124.219 78.1198 123.594 76.7031C122.979 75.276 122.672 73.6823 122.672 71.9219ZM132.734 68.3281C132.589 68.1719 132.344 68.0521 132 67.9688C131.656 67.875 131.297 67.8281 130.922 67.8281C130.62 67.8281 130.312 67.8542 130 67.9062C129.698 67.9583 129.516 68.0156 129.453 68.0781C129.099 68.776 128.875 69.5677 128.781 70.4531L132.953 70.0469L132.734 68.3281ZM140.078 60.5625C139.922 59.9271 139.818 59.401 139.766 58.9844C139.714 58.5573 139.693 58.0677 139.703 57.5156C139.922 57.2344 140.26 56.9531 140.719 56.6719C141.188 56.3802 141.729 56.1354 142.344 55.9375C142.969 55.7396 143.615 55.6406 144.281 55.6406C145.583 55.6406 146.583 55.9688 147.281 56.625C147.979 57.2812 148.328 58.25 148.328 59.5312C148.328 60.4479 148.25 61.9219 148.094 63.9531C147.938 65.9844 147.714 68.1458 147.422 70.4375C147.13 72.7188 146.797 74.7135 146.422 76.4219L146.453 76.4531L148.766 75.4844C149.578 76.1823 150.052 77.1094 150.188 78.2656C150.188 78.3385 149.953 78.6406 149.484 79.1719C149.016 79.6927 148.396 80.1823 147.625 80.6406C146.865 81.0885 145.99 81.3125 145 81.3125C143.969 81.3125 143.13 81.026 142.484 80.4531C141.849 79.8802 141.547 78.901 141.578 77.5156L141.609 74.7031C141.62 72.0365 141.646 69.6354 141.688 67.5C141.74 65.3646 141.844 63.1615 142 60.8906L140.078 60.5625ZM151.047 60.5625C150.891 59.9271 150.786 59.401 150.734 58.9844C150.682 58.5573 150.661 58.0677 150.672 57.5156C150.891 57.2344 151.229 56.9531 151.688 56.6719C152.156 56.3802 152.698 56.1354 153.312 55.9375C153.938 55.7396 154.583 55.6406 155.25 55.6406C156.552 55.6406 157.552 55.9688 158.25 56.625C158.948 57.2812 159.297 58.25 159.297 59.5312C159.297 60.4479 159.219 61.9219 159.062 63.9531C158.906 65.9844 158.682 68.1458 158.391 70.4375C158.099 72.7188 157.766 74.7135 157.391 76.4219L157.422 76.4531L159.734 75.4844C160.547 76.1823 161.021 77.1094 161.156 78.2656C161.156 78.3385 160.922 78.6406 160.453 79.1719C159.984 79.6927 159.365 80.1823 158.594 80.6406C157.833 81.0885 156.958 81.3125 155.969 81.3125C154.938 81.3125 154.099 81.026 153.453 80.4531C152.818 79.8802 152.516 78.901 152.547 77.5156L152.578 74.7031C152.589 72.0365 152.615 69.6354 152.656 67.5C152.708 65.3646 152.812 63.1615 152.969 60.8906L151.047 60.5625ZM162.422 71.7656C162.422 69.8802 162.724 68.2448 163.328 66.8594C163.932 65.474 164.859 64.401 166.109 63.6406C167.359 62.8698 168.927 62.4844 170.812 62.4844C172.896 62.4844 174.531 62.875 175.719 63.6562C176.906 64.4271 177.734 65.5 178.203 66.875C178.682 68.25 178.922 69.9323 178.922 71.9219C178.922 73.724 178.604 75.3333 177.969 76.75C177.344 78.1562 176.396 79.2708 175.125 80.0938C173.865 80.9062 172.318 81.3125 170.484 81.3125C167.651 81.3125 165.599 80.4427 164.328 78.7031C163.057 76.9531 162.422 74.6406 162.422 71.7656ZM171.125 76.7344C171.656 76.7344 171.979 76.6927 172.094 76.6094C172.333 76.1927 172.516 75.6042 172.641 74.8438C172.766 74.0833 172.828 73.2604 172.828 72.375C172.828 71.5625 172.776 70.8021 172.672 70.0938C172.568 69.375 172.422 68.8125 172.234 68.4062C172.12 68.2708 171.891 68.1719 171.547 68.1094C171.203 68.0365 170.828 68 170.422 68C169.891 68 169.526 68.0573 169.328 68.1719C168.807 69.0677 168.547 70.3125 168.547 71.9062C168.547 72.6562 168.604 73.4219 168.719 74.2031C168.833 74.9844 168.979 75.6927 169.156 76.3281C169.281 76.4635 169.536 76.5677 169.922 76.6406C170.307 76.7031 170.708 76.7344 171.125 76.7344ZM191.516 74.2812C190.766 71.1875 190.104 68.599 189.531 66.5156C188.958 64.4219 188.5 63.1198 188.156 62.6094L186.594 62.5C186.292 61.7083 186.078 60.7344 185.953 59.5781C186.13 59.0052 186.464 58.5104 186.953 58.0938C187.443 57.6667 188.016 57.3438 188.672 57.125C189.328 56.9062 189.99 56.7969 190.656 56.7969C192.177 56.7969 193.312 57.4948 194.062 58.8906C194.406 59.526 194.698 60.2917 194.938 61.1875C195.177 62.0729 195.401 63.125 195.609 64.3438C195.953 66.3958 196.193 68.2396 196.328 69.875C196.464 71.5 196.573 73.2292 196.656 75.0625L196.719 76.4688H196.953C197.214 75.8958 197.5 74.6615 197.812 72.7656C198.125 70.8698 198.396 68.8646 198.625 66.75C198.854 64.625 198.979 63.0469 199 62.0156L197.031 61.7188C196.885 61.1667 196.792 60.6719 196.75 60.2344C196.708 59.7969 196.688 59.2656 196.688 58.6406C196.906 58.3698 197.271 58.0885 197.781 57.7969C198.292 57.5052 198.885 57.2604 199.562 57.0625C200.24 56.8646 200.911 56.7656 201.578 56.7656C202.474 56.7656 203.281 56.9167 204 57.2188C204.729 57.5104 205.307 57.9479 205.734 58.5312C206.172 59.1146 206.396 59.8281 206.406 60.6719V63.0781C206.875 64.901 207.281 67.0417 207.625 69.5C207.979 71.9479 208.24 74.2656 208.406 76.4531H208.578C208.828 75.8698 209.109 74.6302 209.422 72.7344C209.745 70.8281 210.026 68.8229 210.266 66.7188C210.505 64.6042 210.63 63.0365 210.641 62.0156L208.797 61.7188C208.651 61.1667 208.557 60.6719 208.516 60.2344C208.474 59.7969 208.453 59.2656 208.453 58.6406C208.661 58.3698 209.026 58.0885 209.547 57.7969C210.068 57.5052 210.667 57.2604 211.344 57.0625C212.031 56.8646 212.708 56.7656 213.375 56.7656C214.74 56.7656 215.76 57.1198 216.438 57.8281C217.115 58.5365 217.453 59.6146 217.453 61.0625C217.453 62.4375 217.224 64.2083 216.766 66.375C216.307 68.5417 215.734 70.5781 215.047 72.4844C214.453 74.151 213.87 75.5938 213.297 76.8125C212.724 78.0208 212.016 79.2083 211.172 80.375C210.828 80.7292 210.375 80.974 209.812 81.1094C209.26 81.2448 208.688 81.3125 208.094 81.3125C206.042 81.3125 204.526 80.9167 203.547 80.125L203.969 76.9219L202.953 71.6562C202.714 70.2708 202.557 69.1667 202.484 68.3438L202.281 68.3281L202.234 70.3125C201.891 72.3542 201.469 74.25 200.969 76C200.479 77.7396 199.917 79.1979 199.281 80.375C198.979 80.7188 198.562 80.9583 198.031 81.0938C197.5 81.2396 196.958 81.3125 196.406 81.3125C194.271 81.3125 192.766 80.9219 191.891 80.1406L192.234 77.2031L191.516 74.2812ZM218.828 71.7656C218.828 69.8802 219.13 68.2448 219.734 66.8594C220.339 65.474 221.266 64.401 222.516 63.6406C223.766 62.8698 225.333 62.4844 227.219 62.4844C229.302 62.4844 230.938 62.875 232.125 63.6562C233.312 64.4271 234.141 65.5 234.609 66.875C235.089 68.25 235.328 69.9323 235.328 71.9219C235.328 73.724 235.01 75.3333 234.375 76.75C233.75 78.1562 232.802 79.2708 231.531 80.0938C230.271 80.9062 228.724 81.3125 226.891 81.3125C224.057 81.3125 222.005 80.4427 220.734 78.7031C219.464 76.9531 218.828 74.6406 218.828 71.7656ZM227.531 76.7344C228.062 76.7344 228.385 76.6927 228.5 76.6094C228.74 76.1927 228.922 75.6042 229.047 74.8438C229.172 74.0833 229.234 73.2604 229.234 72.375C229.234 71.5625 229.182 70.8021 229.078 70.0938C228.974 69.375 228.828 68.8125 228.641 68.4062C228.526 68.2708 228.297 68.1719 227.953 68.1094C227.609 68.0365 227.234 68 226.828 68C226.297 68 225.932 68.0573 225.734 68.1719C225.214 69.0677 224.953 70.3125 224.953 71.9062C224.953 72.6562 225.01 73.4219 225.125 74.2031C225.24 74.9844 225.385 75.6927 225.562 76.3281C225.688 76.4635 225.943 76.5677 226.328 76.6406C226.714 76.7031 227.115 76.7344 227.531 76.7344ZM239.016 76.8125C239.016 76.3646 239.026 75.2656 239.047 73.5156C239.078 70.0781 239.094 68.1979 239.094 67.875L237.656 67.6406C237.458 67.0469 237.318 66.4896 237.234 65.9688C237.151 65.4479 237.109 64.9219 237.109 64.3906C237.109 64.1719 237.115 64.0052 237.125 63.8906C237.302 63.7344 237.578 63.5469 237.953 63.3281C238.328 63.1094 238.771 62.9167 239.281 62.75C239.792 62.5729 240.312 62.4844 240.844 62.4844C242.083 62.4844 242.979 62.7604 243.531 63.3125C244.094 63.8646 244.375 64.6719 244.375 65.7344C244.375 66.3802 244.292 67.2083 244.125 68.2188C243.969 69.2188 243.807 69.9323 243.641 70.3594L244.203 70.4531L245.141 66.9219C245.557 65.3281 246.078 64.1927 246.703 63.5156C247.328 62.8281 248.031 62.4844 248.812 62.4844C249.323 62.4844 249.828 62.5625 250.328 62.7188C250.839 62.875 251.229 63.0677 251.5 63.2969C251.792 63.9427 251.938 64.8021 251.938 65.875C251.938 66.625 251.865 67.3698 251.719 68.1094C251.573 68.8385 251.385 69.4271 251.156 69.875L247.875 69.4375C247.208 70.1458 246.5 71.1302 245.75 72.3906C245 73.6406 244.401 74.7917 243.953 75.8438L243.938 76.6562L246.969 75.9375C247.479 76.7188 247.776 77.6458 247.859 78.7188C247.859 78.7812 247.625 79.0365 247.156 79.4844C246.688 79.9323 246.068 80.349 245.297 80.7344C244.536 81.1094 243.661 81.2969 242.672 81.2969C241.651 81.2969 240.797 81.026 240.109 80.4844C239.432 79.9323 239.073 79.0052 239.031 77.7031C239.021 77.5469 239.016 77.25 239.016 76.8125ZM252.672 60.5625C252.516 59.9271 252.411 59.401 252.359 58.9844C252.307 58.5573 252.286 58.0677 252.297 57.5156C252.516 57.2344 252.854 56.9531 253.312 56.6719C253.781 56.3802 254.323 56.1354 254.938 55.9375C255.562 55.7396 256.208 55.6406 256.875 55.6406C258.177 55.6406 259.177 55.9688 259.875 56.625C260.573 57.2812 260.922 58.25 260.922 59.5312C260.922 60.4479 260.844 61.9219 260.688 63.9531C260.531 65.9844 260.307 68.1458 260.016 70.4375C259.724 72.7188 259.391 74.7135 259.016 76.4219L259.047 76.4531L261.359 75.4844C262.172 76.1823 262.646 77.1094 262.781 78.2656C262.781 78.3385 262.547 78.6406 262.078 79.1719C261.609 79.6927 260.99 80.1823 260.219 80.6406C259.458 81.0885 258.583 81.3125 257.594 81.3125C256.562 81.3125 255.724 81.026 255.078 80.4531C254.443 79.8802 254.141 78.901 254.172 77.5156L254.203 74.7031C254.214 72.0365 254.24 69.6354 254.281 67.5C254.333 65.3646 254.438 63.1615 254.594 60.8906L252.672 60.5625ZM264.125 71.9844C264.125 70.401 264.344 68.8854 264.781 67.4375C265.229 65.9896 265.927 64.8021 266.875 63.875C267.833 62.9479 269.036 62.4844 270.484 62.4844C272.109 62.4844 273.661 63 275.141 64.0312L275.391 63.875C275.359 62.6562 275.208 61.5521 274.938 60.5625L271.766 60.3594C271.62 60.1719 271.505 59.8958 271.422 59.5312C271.339 59.1562 271.297 58.7708 271.297 58.375C271.297 57.8438 271.359 57.3854 271.484 57C272.109 56.5521 272.911 56.2135 273.891 55.9844C274.87 55.7552 275.849 55.6406 276.828 55.6406C277.911 55.6406 278.729 55.8698 279.281 56.3281C279.833 56.776 280.203 57.4583 280.391 58.375C280.589 59.2812 280.688 60.5417 280.688 62.1562C280.688 64.2812 280.599 66.6927 280.422 69.3906C280.245 72.0885 280.016 74.2917 279.734 76L279.672 76.2656L281.484 75.4844C281.786 75.8073 282.052 76.2031 282.281 76.6719C282.521 77.1302 282.672 77.6615 282.734 78.2656C282.589 78.5781 282.271 78.9792 281.781 79.4688C281.292 79.9479 280.693 80.375 279.984 80.75C279.276 81.125 278.536 81.3125 277.766 81.3125C276.901 81.3125 276.234 81.0573 275.766 80.5469C275.307 80.026 275.078 79.3646 275.078 78.5625C275.078 78.3542 275.13 77.9271 275.234 77.2812C275.349 76.6354 275.443 76.1875 275.516 75.9375L275.047 75.7969C274.516 77.6615 273.812 79.0469 272.938 79.9531C272.062 80.8594 270.979 81.3125 269.688 81.3125C268.302 81.3125 267.193 80.8542 266.359 79.9375C265.536 79.0104 264.958 77.849 264.625 76.4531C264.292 75.0573 264.125 73.5677 264.125 71.9844ZM274.844 71.7031C274.906 71.3281 274.938 70.8906 274.938 70.3906C274.938 70.0677 274.922 69.7604 274.891 69.4688C274.87 69.1771 274.844 68.9688 274.812 68.8438C274.396 68.5417 273.922 68.3281 273.391 68.2031C272.87 68.0781 272.391 68.0156 271.953 68.0156C271.682 68.0156 271.391 68.0417 271.078 68.0938C270.87 68.3021 270.703 68.7552 270.578 69.4531C270.453 70.1406 270.391 70.9167 270.391 71.7812C270.391 72.7083 270.453 73.6094 270.578 74.4844C270.714 75.349 270.901 76.026 271.141 76.5156C271.307 76.5156 271.63 76.2604 272.109 75.75C272.599 75.2292 273.104 74.5938 273.625 73.8438C274.146 73.0833 274.552 72.3698 274.844 71.7031ZM284.266 57.0938C284.807 56.7188 285.594 56.3854 286.625 56.0938C287.656 55.7917 288.635 55.6406 289.562 55.6406C290.344 55.6406 290.979 55.7604 291.469 56C291.469 57.6771 291.37 59.7812 291.172 62.3125C290.974 64.8333 290.698 67.9062 290.344 71.5312C290.125 71.9062 289.781 72.2083 289.312 72.4375C288.854 72.6562 288.365 72.7656 287.844 72.7656C287.448 72.7656 287.068 72.6979 286.703 72.5625C286.339 72.4271 286.021 72.224 285.75 71.9531L284.266 57.0938ZM288.078 74.7344C289.453 74.7344 290.453 75.0365 291.078 75.6406C291.714 76.2344 292.031 76.9844 292.031 77.8906C292.031 78.4948 291.839 79.0625 291.453 79.5938C291.078 80.1146 290.583 80.5312 289.969 80.8438C289.365 81.1562 288.734 81.3125 288.078 81.3125C287.422 81.3125 286.786 81.1562 286.172 80.8438C285.568 80.5312 285.073 80.1146 284.688 79.5938C284.312 79.0625 284.125 78.4948 284.125 77.8906C284.125 76.9844 284.438 76.2344 285.062 75.6406C285.698 75.0365 286.703 74.7344 288.078 74.7344Z" fill="#F5A006"/>
<defs>
<clipPath id="clip0_3_738">
<rect width="500" height="470" fill="white" transform="translate(0 185)"/>
</clipPath>
</defs>
</svg>
