<svg width="500" height="596" viewBox="0 0 500 596" fill="none" xmlns="http://www.w3.org/2000/svg">
<g clip-path="url(#clip0_91_96)">
<path d="M193.654 489.174C183.705 478.911 169.288 473.025 154.099 473.025L153.513 473.027C143.508 473.031 133.682 470.377 125.04 465.336L124.14 464.812L124.865 464.065C128.786 460.007 132.061 455.37 134.573 450.316C132.789 451.98 130.66 453.232 128.339 453.982C126.017 454.732 123.559 454.963 121.138 454.658C118.582 454.353 116.129 453.473 113.961 452.085C111.794 450.696 109.969 448.835 108.624 446.64C103.315 438.025 96.9871 425.8 96.9871 416.487C96.9953 408.615 98.6432 400.831 101.826 393.632C105.008 386.432 109.655 379.975 115.471 374.671C119.152 371.351 122.093 367.291 124.101 362.758C126.109 358.224 127.14 353.318 127.125 348.359L127.122 347.654C127.121 341.125 127.919 334.621 129.497 328.287L129.657 327.647L130.315 327.67C134.558 327.815 138.804 327.459 142.964 326.61C139.062 326.132 135.244 325.116 131.62 323.592L130.912 323.306L131.152 322.581C147.712 312.325 185.092 317.636 206.788 267.984C224.381 227.724 286.454 303.724 286.454 347.654C286.454 352.136 282.019 358.06 285.339 361.022C321.23 393.05 296.466 413.615 288.658 434.31C286.806 439.22 290.822 444.61 290.822 449.922C290.822 450.823 290.799 451.754 290.754 452.687L290.685 454.122L289.488 453.326C287.121 451.775 284.926 449.974 282.942 447.956C285.001 452.693 285.971 457.832 285.781 462.994C285.591 468.157 284.247 473.211 281.847 477.784C278.085 484.885 274.447 489.968 271.031 492.893C260.091 502.257 245.988 507.087 231.605 506.396C217.222 505.705 203.647 499.544 193.654 489.174Z" fill="#E6E6E6"/>
<path d="M253.743 596C253.988 596 254.224 595.911 254.408 595.751C254.593 595.59 254.714 595.369 254.748 595.126C254.791 594.823 259.022 564.306 255.222 523.748C251.714 486.291 240.446 432.34 206.692 388.032C206.611 387.925 206.51 387.836 206.394 387.768C206.279 387.701 206.151 387.657 206.019 387.639C205.887 387.621 205.752 387.63 205.623 387.664C205.494 387.698 205.373 387.757 205.266 387.838C205.16 387.919 205.071 388.02 205.004 388.136C204.936 388.251 204.893 388.379 204.875 388.511C204.857 388.644 204.866 388.778 204.9 388.908C204.934 389.037 204.993 389.158 205.075 389.264C238.537 433.19 249.714 486.745 253.198 523.937C256.975 564.26 252.778 594.539 252.735 594.84C252.715 594.984 252.726 595.131 252.767 595.271C252.808 595.41 252.879 595.54 252.975 595.65C253.07 595.76 253.188 595.848 253.321 595.908C253.453 595.969 253.597 596 253.743 596Z" fill="#3F3D56"/>
<path d="M226.198 450.531C226.413 450.531 226.622 450.463 226.796 450.337C226.969 450.211 227.099 450.033 227.165 449.829C227.232 449.625 227.232 449.405 227.166 449.2C227.099 448.996 226.97 448.818 226.796 448.692C217.178 442.18 206.788 436.89 195.865 432.942C178.8 426.693 152.85 421.028 126.134 429.533C126.007 429.573 125.888 429.638 125.786 429.724C125.684 429.81 125.6 429.915 125.538 430.034C125.476 430.153 125.439 430.282 125.428 430.416C125.416 430.549 125.431 430.683 125.472 430.81C125.512 430.938 125.577 431.056 125.664 431.158C125.75 431.26 125.856 431.344 125.974 431.406C126.093 431.467 126.223 431.504 126.356 431.515C126.489 431.526 126.623 431.511 126.751 431.47C152.919 423.14 178.399 428.712 195.166 434.852C205.914 438.732 216.137 443.933 225.601 450.337C225.774 450.463 225.983 450.531 226.198 450.531Z" fill="#3F3D56"/>
<path d="M272.724 334.624C272.74 334.409 272.687 334.196 272.574 334.013C272.461 333.831 272.293 333.689 272.094 333.608C271.895 333.527 271.676 333.511 271.467 333.562C271.259 333.614 271.072 333.73 270.933 333.894C263.747 343.02 257.724 353.005 253.001 363.618C245.541 380.193 238.023 405.674 244.579 432.939C244.61 433.069 244.667 433.191 244.745 433.299C244.823 433.408 244.922 433.499 245.036 433.569C245.15 433.639 245.277 433.686 245.409 433.706C245.541 433.727 245.675 433.722 245.805 433.691C245.935 433.66 246.058 433.603 246.166 433.524C246.274 433.446 246.365 433.347 246.435 433.233C246.505 433.119 246.551 432.992 246.572 432.86C246.593 432.728 246.587 432.593 246.556 432.463C240.134 405.757 247.525 380.739 254.855 364.453C259.498 354.01 265.421 344.186 272.488 335.205C272.626 335.041 272.709 334.838 272.724 334.624Z" fill="#3F3D56"/>
<path d="M468.805 594.923H387.879L387.531 594.292C386.497 592.415 385.498 590.426 384.564 588.383C376.228 570.533 372.705 550.117 369.596 532.105L367.255 518.528C366.972 516.884 367.185 515.192 367.868 513.67C368.552 512.148 369.674 510.864 371.09 509.984C372.507 509.103 374.155 508.665 375.822 508.726C377.489 508.788 379.1 509.345 380.448 510.327C392.746 519.278 405.05 528.221 417.358 537.155C422.018 540.547 427.34 544.472 432.438 548.714C432.929 546.325 433.444 543.929 433.958 541.566C434.313 539.935 435.146 538.446 436.352 537.291C437.557 536.136 439.08 535.367 440.724 535.083C442.369 534.798 444.061 535.011 445.584 535.694C447.108 536.378 448.392 537.5 449.274 538.917L458.742 554.133C465.648 565.245 471.743 576.194 470.501 588.004C470.507 588.148 470.497 588.292 470.469 588.433C470.221 590.373 469.76 592.279 469.095 594.118L468.805 594.923Z" fill="#F0F0F0"/>
<path d="M431.102 276.699L415.484 218.878C414.815 216.43 413.211 214.344 411.017 213.069C408.824 211.794 406.217 211.432 403.76 212.063C402.489 212.389 401.297 212.97 400.258 213.772C399.219 214.574 398.354 215.579 397.715 216.726C397.077 217.873 396.679 219.138 396.546 220.444C396.412 221.75 396.546 223.069 396.939 224.322L415.003 283.886L424.454 320.542C423.078 321.593 422.058 323.043 421.534 324.694C421.01 326.345 421.007 328.117 421.525 329.77C422.043 331.423 423.057 332.877 424.43 333.933C425.802 334.99 427.467 335.598 429.197 335.675C430.927 335.752 432.639 335.295 434.1 334.365C435.562 333.435 436.701 332.078 437.364 330.477C438.028 328.877 438.182 327.111 437.807 325.42C437.432 323.729 436.546 322.194 435.268 321.025L431.102 276.699Z" fill="#FFB8B8"/>
<path d="M299.679 264.246L347.133 227.717C349.139 226.163 350.454 223.883 350.794 221.369C351.134 218.854 350.472 216.307 348.95 214.276C348.163 213.225 347.171 212.346 346.033 211.692C344.895 211.038 343.636 210.622 342.332 210.47C341.029 210.319 339.708 210.434 338.45 210.81C337.193 211.185 336.025 211.813 335.018 212.655L286.888 252.111L256.632 274.853C255.135 273.982 253.406 273.594 251.68 273.74C249.955 273.886 248.316 274.561 246.987 275.671C245.657 276.781 244.702 278.274 244.251 279.947C243.799 281.619 243.873 283.39 244.463 285.019C245.053 286.647 246.129 288.055 247.547 289.051C248.964 290.046 250.654 290.581 252.385 290.582C254.117 290.584 255.808 290.052 257.227 289.059C258.646 288.066 259.725 286.661 260.318 285.033L299.679 264.246Z" fill="#FFB8B8"/>
<path d="M338.356 272.643L336.265 319.37L401.942 305.092C396.352 286.316 392.551 283.114 396.751 270.047L338.356 272.643Z" fill="#FFB8B8"/>
<path d="M378.74 186.98H356.856L347.458 203.065L342.98 202.818C340.789 202.697 338.598 203.024 336.538 203.779C334.478 204.534 332.594 205.702 331.001 207.21C329.408 208.718 328.139 210.535 327.272 212.55C326.404 214.566 325.957 216.737 325.957 218.931L331.475 227.485C331.475 227.485 321.607 244.686 335.821 253.148C335.821 253.148 333.286 269.092 335.821 268.921C338.356 268.749 344.196 265.504 338.356 268.749C332.517 271.994 332.952 272.43 333.708 273.185L334.463 273.941L395.866 284.254C395.866 284.254 397.662 272.347 397.855 270.224C398.049 268.1 396.751 273.292 398.049 268.1C399.347 262.908 401.293 264.855 399.347 262.908C397.4 260.961 411.959 236.841 405.977 227.484L415.567 218.128C415.567 209.154 401.156 201.878 392.184 201.878H391.034L378.74 186.98Z" fill="#E6E6E6"/>
<path d="M326.013 576.909H317.155L312.941 542.736L326.014 542.737L326.013 576.909Z" fill="#FFB8B8"/>
<path d="M299.279 589.981C299.283 590.974 299.678 591.925 300.379 592.627C301.08 593.329 302.03 593.727 303.022 593.733H319.696L320.213 592.662L322.571 587.795L323.485 592.662L323.687 593.733H329.976L329.886 592.655L328.209 572.54L326.015 572.405L316.536 571.843L314.208 571.701V577.707C312.441 579.587 298.575 586.694 299.279 589.981Z" fill="#2F2E41"/>
<path d="M457.651 553.703L450.202 558.497L428.174 532.037L439.169 524.964L457.651 553.703Z" fill="#FFB8B8"/>
<path d="M442.238 579.164C442.779 579.997 443.625 580.582 444.595 580.794C445.564 581.005 446.578 580.826 447.416 580.294L461.439 571.271L461.294 570.091L460.644 564.72L464.046 568.32L464.795 569.111L470.084 565.708L469.425 564.849L457.134 548.84L455.217 549.914L446.941 554.571L444.906 555.711L448.155 560.762C447.685 563.3 439.868 576.78 442.238 579.164Z" fill="#2F2E41"/>
<path d="M498.97 595.547L224.7 595.815C224.426 595.813 224.164 595.703 223.971 595.509C223.778 595.315 223.67 595.053 223.67 594.779C223.67 594.505 223.778 594.243 223.971 594.049C224.164 593.855 224.426 593.745 224.7 593.743L498.97 593.476C499.244 593.478 499.506 593.587 499.699 593.781C499.892 593.975 500 594.238 500 594.512C500 594.785 499.892 595.048 499.699 595.242C499.506 595.436 499.244 595.546 498.97 595.547Z" fill="#CACACA"/>
<path d="M400.913 299.814C400.913 299.814 358.931 322.026 336.725 306.871C336.725 306.871 331.868 330.403 329.922 332.35C327.975 334.296 324.874 335.145 327.073 337.317C329.273 339.488 330.497 342.422 326.316 346.147C322.136 349.872 317.967 348.69 321.998 352.526C326.029 356.362 309.808 450.465 309.808 450.465C309.808 450.465 312.403 537.976 309.808 540.623C307.213 543.27 303.744 543.862 307.1 547.135C310.457 550.408 310.457 547.87 310.457 552.384V556.898L311.992 561.385H333.059C333.059 561.385 338.143 555.478 333.059 550.347C327.975 545.216 334.606 543.813 336.157 538.998C337.708 534.184 340.303 539.376 337.708 534.184C335.112 528.992 333.866 529.98 333.84 526.565C333.815 523.151 372.096 389.46 372.096 389.46L376.732 463.456L432.502 544.494L448.918 532.18C448.918 532.18 436.966 515.351 439.761 513.037C442.556 510.724 431.524 507.822 435.003 505.212C438.482 502.603 430.107 499.973 433.263 496.513C436.42 493.054 428.915 484.334 424.566 484.334C420.218 484.334 414.115 469.799 414.115 469.799L423.225 354.977L400.913 299.814Z" fill="#2F2E41"/>
<path d="M356.416 139.748C356.119 140.138 353.751 139.928 350.905 139.512C345.277 138.69 344.51 139.667 340.303 143.495C334.208 149.04 337.673 182.861 334.679 190.189L333.711 190.903C335.63 190.536 337.515 190.008 339.346 189.325C340.38 186.062 341.416 182.788 342.46 179.527C343.446 182.064 344.065 184.729 344.3 187.44C345.749 186.869 347.189 185.472 353.243 183.598C356.291 181.53 378.344 179.45 381.179 178.54C388.374 154.053 376.779 144.151 356.416 139.748Z" fill="#2F2E41"/>
<path d="M363.862 177.508C375.5 177.508 384.936 168.07 384.936 156.428C384.936 144.787 375.5 135.349 363.862 135.349C352.223 135.349 342.787 144.787 342.787 156.428C342.787 168.07 352.223 177.508 363.862 177.508Z" fill="#FFB8B8"/>
<path d="M377.129 137.89C375.942 137.715 374.799 137.314 373.762 136.709C373.247 136.399 372.831 135.95 372.56 135.414C372.289 134.878 372.174 134.276 372.228 133.678C372.488 132.18 374.18 131.286 375.698 131.377C377.208 131.595 378.643 132.176 379.879 133.07C379.744 131.623 379.125 130.263 378.124 129.209C377.123 128.155 375.796 127.469 374.358 127.26C376.353 127.152 378.427 127.058 380.272 127.825C382.117 128.593 383.655 130.493 383.322 132.464C386.424 132.064 389.482 134.226 390.763 137.08C392.043 139.933 391.79 143.285 390.766 146.241C390.666 146.693 390.469 147.119 390.189 147.489C389.909 147.859 389.553 148.164 389.145 148.384C388.101 148.781 386.978 148.116 386.073 147.461C381.349 144.04 377.048 140.067 373.263 135.628" fill="#2F2E41"/>
<path d="M386.318 178.839C385.425 179.259 385.89 180.825 385.196 181.526C384.894 181.822 384.531 182.049 384.131 182.188C384.027 180.881 383.723 179.599 383.23 178.385C383.139 178.164 382.99 177.917 382.756 177.937C382.483 177.969 382.412 178.326 382.406 178.592C382.351 179.912 382.058 181.211 381.543 182.428C381.536 182.441 381.53 182.46 381.523 182.473C381.322 182.467 381.114 182.46 380.92 182.454C379.414 182.395 376.079 178.527 375.34 179.838C377.948 175.211 381.127 168.254 381.614 162.965C381.783 161.857 381.701 160.726 381.374 159.655C381.203 159.122 380.883 158.649 380.452 158.292C380.021 157.936 379.496 157.71 378.941 157.643C378.667 157.63 378.393 157.679 378.14 157.784C377.887 157.89 377.66 158.05 377.476 158.253C377.292 158.457 377.155 158.698 377.075 158.961C376.995 159.223 376.974 159.5 377.014 159.772L376.638 159.72C373.147 156.877 376.157 151.938 372.096 149.985C370.72 149.323 362.298 151.536 360.812 151.147C360.781 149.581 360.462 148.035 359.872 146.584C359.781 146.364 359.632 146.117 359.398 146.137C359.126 146.169 359.054 146.526 359.048 146.792C358.993 148.112 358.7 149.411 358.185 150.628C356.126 150.335 354.031 150.446 352.014 150.952C350.237 151.419 348.55 152.224 346.765 152.652C345.883 152.923 344.955 153.01 344.038 152.91C343.121 152.809 342.235 152.523 341.432 152.068C339.167 150.55 338.772 147.188 339.901 144.709C340.718 143.118 341.822 141.692 343.158 140.503C344.176 139.517 345.234 138.569 346.292 137.622C347.239 136.772 348.186 135.921 349.134 135.071C350.326 133.949 351.597 132.912 352.936 131.969C355.074 130.567 357.475 129.618 359.994 129.178C362.512 128.738 365.093 128.818 367.58 129.412C370.564 130.126 374.555 129.12 377.286 130.515C378.714 131.249 381.874 134.059 383.126 135.058C386.331 137.609 384.162 135.531 387.668 137.005C396.027 140.522 392.33 176.008 386.318 178.839Z" fill="#2F2E41"/>
<path d="M152.979 332.693C225.159 332.693 283.673 274.166 283.673 201.969C283.673 129.771 225.159 71.2441 152.979 71.2441C80.7992 71.2441 22.2856 129.771 22.2856 201.969C22.2856 274.166 80.7992 332.693 152.979 332.693Z" fill="white"/>
<path d="M152.979 333.998C80.1954 333.998 20.9811 274.769 20.9811 201.968C20.9811 129.167 80.1954 69.9391 152.979 69.9391C225.763 69.9391 284.978 129.167 284.978 201.968C284.978 274.769 225.763 333.998 152.979 333.998ZM152.979 72.5488C81.6342 72.5488 23.5903 130.606 23.5903 201.968C23.5903 273.33 81.6341 331.388 152.979 331.388C224.325 331.388 282.368 273.33 282.368 201.968C282.368 130.606 224.325 72.5488 152.979 72.5488Z" fill="#F5A006"/>
<path d="M135.15 270.005C132.893 270.005 130.667 269.479 128.649 268.469C126.63 267.459 124.875 265.993 123.521 264.187L87.8656 216.635C86.7202 215.107 85.8868 213.368 85.4131 211.519C84.9394 209.669 84.8345 207.744 85.1045 205.853C85.3746 203.963 86.0142 202.144 86.987 200.501C87.9597 198.858 89.2465 197.423 90.7738 196.277C92.3011 195.132 94.0391 194.298 95.8885 193.824C97.7378 193.35 99.6624 193.245 101.552 193.516C103.442 193.786 105.26 194.426 106.903 195.398C108.546 196.371 109.981 197.658 111.126 199.186L134.453 230.294L194.365 140.406C196.505 137.199 199.83 134.974 203.61 134.219C207.39 133.464 211.314 134.241 214.521 136.38C217.728 138.518 219.955 141.843 220.712 145.623C221.469 149.403 220.694 153.329 218.558 156.538L147.248 263.529C145.958 265.464 144.223 267.061 142.188 268.187C140.154 269.313 137.879 269.935 135.555 270C135.42 270.002 135.285 270.005 135.15 270.005Z" fill="#F5A006"/>
<path d="M287.632 79.4117C287.996 76.9124 285.379 74.4626 281.787 73.9399C278.195 73.4172 274.988 75.0195 274.625 77.5187C274.261 80.018 276.878 82.4679 280.47 82.9906C284.062 83.5133 287.269 81.911 287.632 79.4117Z" fill="#E6E6E6"/>
<path d="M330.396 75.238C330.76 72.7387 328.143 70.2889 324.551 69.7662C320.959 69.2435 317.753 70.8458 317.389 73.345C317.026 75.8443 319.643 78.2941 323.235 78.8168C326.826 79.3395 330.033 77.7372 330.396 75.238Z" fill="#3F3D56"/>
<path d="M275.921 44.7821C276.285 42.2828 273.668 39.833 270.076 39.3103C266.484 38.7876 263.278 40.3899 262.914 42.8891C262.55 45.3884 265.168 47.8382 268.759 48.361C272.351 48.8837 275.558 47.2814 275.921 44.7821Z" fill="#FF6584"/>
<path d="M257.339 30.5971C257.357 28.3027 256.077 26.4329 254.481 26.4208C252.885 26.4087 251.578 28.259 251.56 30.5534C251.543 32.8478 252.823 34.7176 254.418 34.7297C256.014 34.7417 257.322 32.8915 257.339 30.5971Z" fill="#E6E6E6"/>
<path d="M251.038 4.17634C251.055 1.88191 249.775 0.0121179 248.18 4.83766e-05C246.584 -0.0120212 245.276 1.83821 245.259 4.13264C245.241 6.42707 246.521 8.29686 248.117 8.30893C249.713 8.321 251.02 6.47078 251.038 4.17634Z" fill="#3F3D56"/>
<path d="M300.042 50.675C300.059 48.3806 298.779 46.5108 297.184 46.4987C295.588 46.4867 294.28 48.3369 294.263 50.6313C294.246 52.9258 295.525 54.7956 297.121 54.8076C298.717 54.8197 300.024 52.9695 300.042 50.675Z" fill="#E6E6E6"/>
<path d="M279.376 60.9957C279.393 58.7013 278.113 56.8315 276.518 56.8195C274.922 56.8074 273.614 58.6576 273.597 60.952C273.579 63.2465 274.859 65.1162 276.455 65.1283C278.051 65.1404 279.358 63.2902 279.376 60.9957Z" fill="#FF6584"/>
<path d="M308.143 80.0711C308.161 77.7766 306.881 75.9068 305.285 75.8948C303.69 75.8827 302.382 77.7329 302.365 80.0273C302.347 82.3218 303.627 84.1915 305.222 84.2036C306.818 84.2157 308.126 82.3655 308.143 80.0711Z" fill="#3F3D56"/>
<path d="M42.3734 389.102C42.737 386.603 40.1199 384.153 36.528 383.63C32.9362 383.107 29.7297 384.71 29.3662 387.209C29.0026 389.708 31.6196 392.158 35.2115 392.681C38.8034 393.203 42.0099 391.601 42.3734 389.102Z" fill="#E6E6E6"/>
<path d="M85.1384 384.928C85.502 382.429 82.8849 379.979 79.2931 379.456C75.7012 378.933 72.4947 380.536 72.1312 383.035C71.7676 385.534 74.3847 387.984 77.9765 388.507C81.5684 389.03 84.7749 387.427 85.1384 384.928Z" fill="#3F3D56"/>
<path d="M30.6631 354.472C31.0266 351.973 28.4096 349.523 24.8177 349C21.2259 348.478 18.0194 350.08 17.6558 352.579C17.2923 355.078 19.9093 357.528 23.5012 358.051C27.0931 358.574 30.2995 356.971 30.6631 354.472Z" fill="#FF6584"/>
<path d="M12.0806 340.287C12.0979 337.993 10.8184 336.123 9.22264 336.111C7.6269 336.099 6.3192 337.949 6.30185 340.244C6.28451 342.538 7.56408 344.408 9.15983 344.42C10.7556 344.432 12.0632 342.582 12.0806 340.287Z" fill="#E6E6E6"/>
<path d="M5.77893 313.866C5.79628 311.572 4.51673 309.702 2.92098 309.69C1.32523 309.678 0.0175645 311.528 0.00021863 313.823C-0.0171273 316.117 1.26242 317.987 2.85817 317.999C4.45392 318.011 5.76158 316.161 5.77893 313.866Z" fill="#3F3D56"/>
<path d="M54.783 360.365C54.8003 358.071 53.5207 356.201 51.925 356.189C50.3292 356.177 49.0216 358.027 49.0042 360.322C48.9869 362.616 50.2664 364.486 51.8622 364.498C53.4579 364.51 54.7656 362.66 54.783 360.365Z" fill="#E6E6E6"/>
<path d="M34.1171 370.686C34.1344 368.391 32.8548 366.522 31.2591 366.51C29.6633 366.498 28.3556 368.348 28.3383 370.642C28.3209 372.937 29.6005 374.806 31.1963 374.818C32.792 374.831 34.0997 372.98 34.1171 370.686Z" fill="#FF6584"/>
<path d="M62.8847 389.761C62.9021 387.467 61.6225 385.597 60.0267 385.585C58.431 385.573 57.1233 387.423 57.106 389.718C57.0886 392.012 58.3682 393.882 59.9639 393.894C61.5597 393.906 62.8674 392.056 62.8847 389.761Z" fill="#3F3D56"/>
</g>
<defs>
<clipPath id="clip0_91_96">
<rect width="500" height="596" fill="white"/>
</clipPath>
</defs>
</svg>
