<svg width="37" height="36" viewBox="0 0 37 36" fill="none" xmlns="http://www.w3.org/2000/svg">
<path d="M18.5 10.5001V30.0001M18.5 10.5001H13.1964C12.415 10.5001 11.6655 10.1841 11.113 9.62144C10.5604 9.05883 10.25 8.29577 10.25 7.50012C10.25 6.70448 10.5604 5.94141 11.113 5.37881C11.6655 4.81619 12.415 4.50012 13.1964 4.50012C17.3214 4.50012 18.5 10.5001 18.5 10.5001ZM18.5 10.5001H23.8035C24.585 10.5001 25.3344 10.1841 25.887 9.62144C26.4395 9.05883 26.75 8.29577 26.75 7.50012C26.75 6.70448 26.4395 5.94141 25.887 5.37881C25.3344 4.81619 24.585 4.50012 23.8035 4.50012C19.6785 4.50012 18.5 10.5001 18.5 10.5001ZM8 18.0001H29V26.7001C29 28.3803 29 29.2204 28.673 29.8621C28.3854 30.4266 27.9265 30.8856 27.362 31.1731C26.7203 31.5001 25.8802 31.5001 24.2 31.5001H12.8C11.1198 31.5001 10.2798 31.5001 9.63803 31.1731C9.07354 30.8856 8.61459 30.4266 8.32698 29.8621C8 29.2204 8 28.3803 8 26.7001V18.0001ZM7.4 18.0001H29.6C30.4401 18.0001 30.8602 18.0001 31.181 17.8366C31.4633 17.6928 31.6927 17.4634 31.8365 17.1811C32 16.8603 32 16.4403 32 15.6001V12.9001C32 12.06 32 11.64 31.8365 11.3191C31.6927 11.0369 31.4633 10.8074 31.181 10.6636C30.8602 10.5001 30.4401 10.5001 29.6 10.5001H7.4C6.55992 10.5001 6.13988 10.5001 5.81902 10.6636C5.53678 10.8074 5.3073 11.0369 5.16348 11.3191C5 11.64 5 12.06 5 12.9001V15.6001C5 16.4403 5 16.8603 5.16348 17.1811C5.3073 17.4634 5.53678 17.6928 5.81902 17.8366C6.13988 18.0001 6.55992 18.0001 7.4 18.0001Z" stroke="white" stroke-width="2" stroke-linecap="round" stroke-linejoin="round"/>
</svg>
