<svg width="176" height="200" viewBox="0 0 176 200" fill="none" xmlns="http://www.w3.org/2000/svg">
<path d="M166.362 67.0981H9.57129V199.548H166.362V67.0981Z" fill="white"/>
<path d="M166.818 200H9.11572V66.6461H166.818V200ZM10.0273 199.096H165.906V67.5502H10.0273V199.096Z" fill="#3F3D56"/>
<path d="M107.566 92.8647H68.3682V199.548H107.566V92.8647Z" fill="#F5A006"/>
<path d="M107.566 92.8647H68.3682V199.548H107.566V92.8647Z" fill="#F5A006"/>
<path opacity="0.2" d="M10.0273 76.817V98.3064L166.362 108.234L165.901 81.7181L10.0273 76.817Z" fill="black"/>
<path d="M175.478 54.8928H0.455566V92.8648H175.478V54.8928Z" fill="white"/>
<path d="M175.934 93.3168H0V54.4408H175.934V93.3168ZM0.911573 92.4128H175.022V55.3449H0.911573V92.4128Z" fill="#3F3D56"/>
<path d="M107.566 51.2765H68.3682V92.4128H107.566V51.2765Z" fill="#F5A006"/>
<path d="M83.7702 15.4093C94.1173 30.6215 84.3684 55.088 84.3684 55.088C84.3684 55.088 57.8438 54.8908 47.4968 39.6786C37.1498 24.4665 46.8986 0 46.8986 0C46.8986 0 73.4233 0.197233 83.7702 15.4093Z" fill="#F5A006"/>
<path d="M88.5169 15.4093C78.1699 30.6215 87.9187 55.088 87.9187 55.088C87.9187 55.088 114.443 54.8908 124.79 39.6786C135.137 24.4665 125.388 0 125.388 0C125.388 0 98.8639 0.197233 88.5169 15.4093Z" fill="#F5A006"/>
<path d="M60.6197 26.866C62.8852 26.866 64.7217 25.0445 64.7217 22.7976C64.7217 20.5506 62.8852 18.7291 60.6197 18.7291C58.3541 18.7291 56.5176 20.5506 56.5176 22.7976C56.5176 25.0445 58.3541 26.866 60.6197 26.866Z" fill="#3F3D56"/>
<path d="M85.232 68.0022C87.4975 68.0022 89.334 66.1807 89.334 63.9338C89.334 61.6869 87.4975 59.8654 85.232 59.8654C82.9664 59.8654 81.1299 61.6869 81.1299 63.9338C81.1299 66.1807 82.9664 68.0022 85.232 68.0022Z" fill="#3F3D56"/>
<path d="M85.232 157.056C87.4975 157.056 89.334 155.234 89.334 152.987C89.334 150.74 87.4975 148.919 85.232 148.919C82.9664 148.919 81.1299 150.74 81.1299 152.987C81.1299 155.234 82.9664 157.056 85.232 157.056Z" fill="#3F3D56"/>
<path d="M71.558 40.4274C73.0683 40.4274 74.2927 39.213 74.2927 37.7151C74.2927 36.2171 73.0683 35.0028 71.558 35.0028C70.0476 35.0028 68.8232 36.2171 68.8232 37.7151C68.8232 39.213 70.0476 40.4274 71.558 40.4274Z" fill="#3F3D56"/>
<path d="M112.579 17.3729C114.089 17.3729 115.314 16.1586 115.314 14.6606C115.314 13.1627 114.089 11.9484 112.579 11.9484C111.069 11.9484 109.844 13.1627 109.844 14.6606C109.844 16.1586 111.069 17.3729 112.579 17.3729Z" fill="#3F3D56"/>
<path d="M94.8036 81.1116C96.3139 81.1116 97.5383 79.8972 97.5383 78.3993C97.5383 76.9013 96.3139 75.687 94.8036 75.687C93.2932 75.687 92.0688 76.9013 92.0688 78.3993C92.0688 79.8972 93.2932 81.1116 94.8036 81.1116Z" fill="#3F3D56"/>
<path d="M78.3954 116.371C79.9057 116.371 81.1301 115.157 81.1301 113.659C81.1301 112.161 79.9057 110.947 78.3954 110.947C76.885 110.947 75.6606 112.161 75.6606 113.659C75.6606 115.157 76.885 116.371 78.3954 116.371Z" fill="#3F3D56"/>
<path d="M92.5248 128.577C94.0351 128.577 95.2595 127.362 95.2595 125.864C95.2595 124.366 94.0351 123.152 92.5248 123.152C91.0144 123.152 89.79 124.366 89.79 125.864C89.79 127.362 91.0144 128.577 92.5248 128.577Z" fill="#3F3D56"/>
<path d="M89.3338 179.658C90.8442 179.658 92.0686 178.444 92.0686 176.946C92.0686 175.448 90.8442 174.233 89.3338 174.233C87.8235 174.233 86.5991 175.448 86.5991 176.946C86.5991 178.444 87.8235 179.658 89.3338 179.658Z" fill="#3F3D56"/>
</svg>
