<svg width="128" height="142" viewBox="0 0 128 142" fill="none" xmlns="http://www.w3.org/2000/svg">
<g filter="url(#filter0_f_445_1759)">
<path d="M62.2924 13.6727C63.3536 13.0797 64.6464 13.0797 65.7076 13.6727L89.44 26.9368L112.793 40.8576C113.837 41.48 114.484 42.5997 114.501 43.8152L114.88 71L114.501 98.1849C114.484 99.4003 113.837 100.52 112.793 101.142L89.44 115.063L65.7076 128.327C64.6464 128.92 63.3536 128.92 62.2924 128.327L38.5602 115.063L15.2069 101.142C14.1627 100.52 13.5163 99.4003 13.4994 98.1849L13.1201 71L13.4994 43.8151C13.5163 42.5997 14.1627 41.48 15.2069 40.8576L38.5601 26.9367L62.2924 13.6727Z" stroke="#F5A006" stroke-width="3"/>
</g>
<path d="M62.2924 13.6727C63.3536 13.0797 64.6464 13.0797 65.7076 13.6727L89.44 26.9368L112.793 40.8576C113.837 41.48 114.484 42.5997 114.501 43.8152L114.88 71L114.501 98.1849C114.484 99.4003 113.837 100.52 112.793 101.142L89.44 115.063L65.7076 128.327C64.6464 128.92 63.3536 128.92 62.2924 128.327L38.5602 115.063L15.2069 101.142C14.1627 100.52 13.5163 99.4003 13.4994 98.1849L13.1201 71L13.4994 43.8151C13.5163 42.5997 14.1627 41.48 15.2069 40.8576L38.5601 26.9367L62.2924 13.6727Z" stroke="#F5A006" stroke-width="3"/>
<path d="M25 114.189L25.2401 27.5926C25.2469 25.8399 25.9487 24.1615 27.1915 22.9255C28.4343 21.6896 30.1166 20.9971 31.8693 21L97.2692 21.1813C99.0219 21.1882 100.7 21.89 101.936 23.1328C103.172 24.3756 103.865 26.0579 103.862 27.8106L103.622 114.407C103.615 116.16 102.913 117.839 101.67 119.074C100.427 120.31 98.7451 121.003 96.9924 121L31.5926 120.819C29.8399 120.812 28.1615 120.11 26.9255 118.867C25.6896 117.624 24.9971 115.942 25 114.189Z" fill="#E6E6E6"/>
<path d="M30.0894 88.0476L30.2437 32.3753C30.2501 30.7339 30.9074 29.1619 32.0713 28.0045C33.2352 26.847 34.8107 26.1985 36.4522 26.2012L92.6579 26.357C94.2994 26.3634 95.8713 27.0206 97.0289 28.1845C98.1864 29.3484 98.835 30.924 98.8323 32.5655L98.6187 109.625C98.6123 111.266 97.9549 112.838 96.791 113.996C95.627 115.153 94.0514 115.802 92.4099 115.799L57.5917 115.703C50.2799 115.674 43.2781 112.746 38.1222 107.562C32.9663 102.377 30.0774 95.3594 30.0894 88.0476Z" fill="white"/>
<path d="M86.2173 50.6557H42.3913C41.6939 50.6557 41.025 50.3787 40.5319 49.8856C40.0388 49.3924 39.7617 48.7236 39.7617 48.0262C39.7617 47.3288 40.0388 46.6599 40.5319 46.1668C41.025 45.6737 41.6939 45.3966 42.3913 45.3966H86.2173C86.9147 45.3966 87.5835 45.6737 88.0766 46.1668C88.5698 46.6599 88.8468 47.3288 88.8468 48.0262C88.8468 48.7236 88.5698 49.3924 88.0766 49.8856C87.5835 50.3787 86.9147 50.6557 86.2173 50.6557Z" fill="#6C63FF"/>
<path d="M52.033 38.5304H42.3913C41.6939 38.5304 41.025 38.2533 40.5319 37.7602C40.0388 37.267 39.7617 36.5982 39.7617 35.9008C39.7617 35.2034 40.0388 34.5346 40.5319 34.0414C41.025 33.5483 41.6939 33.2712 42.3913 33.2712H52.033C52.7304 33.2712 53.3992 33.5483 53.8924 34.0414C54.3855 34.5346 54.6626 35.2034 54.6626 35.9008C54.6626 36.5982 54.3855 37.267 53.8924 37.7602C53.3992 38.2533 52.7304 38.5304 52.033 38.5304Z" fill="#6C63FF"/>
<path d="M86.2173 62.7808H42.3913C41.6939 62.7808 41.025 62.5038 40.5319 62.0107C40.0388 61.5175 39.7617 60.8487 39.7617 60.1513C39.7617 59.4539 40.0388 58.785 40.5319 58.2919C41.025 57.7988 41.6939 57.5217 42.3913 57.5217H86.2173C86.9147 57.5217 87.5835 57.7988 88.0766 58.2919C88.5698 58.785 88.8468 59.4539 88.8468 60.1513C88.8468 60.8487 88.5698 61.5175 88.0766 62.0107C87.5835 62.5038 86.9147 62.7808 86.2173 62.7808Z" fill="#6C63FF"/>
<path d="M86.2173 74.906H42.3913C41.6939 74.906 41.025 74.6289 40.5319 74.1358C40.0388 73.6427 39.7617 72.9738 39.7617 72.2764C39.7617 71.579 40.0388 70.9102 40.5319 70.417C41.025 69.9239 41.6939 69.6469 42.3913 69.6469H86.2173C86.9147 69.6469 87.5835 69.9239 88.0766 70.417C88.5698 70.9102 88.8468 71.579 88.8468 72.2764C88.8468 72.9738 88.5698 73.6427 88.0766 74.1358C87.5835 74.6289 86.9147 74.906 86.2173 74.906Z" fill="#6C63FF"/>
<rect x="72" y="85" width="20.93" height="20.93" rx="10.465" fill="#6C63FF"/>
<path d="M82.935 102.665C81.6683 102.665 80.5817 102.398 79.675 101.865C78.7683 101.318 78.075 100.532 77.595 99.505C77.115 98.4783 76.875 97.2117 76.875 95.705C76.875 94.105 77.1617 92.7517 77.735 91.645C78.3217 90.5383 79.1283 89.6983 80.155 89.125C81.195 88.5517 82.3883 88.265 83.735 88.265C84.4417 88.265 85.115 88.3383 85.755 88.485C86.4083 88.6317 86.9617 88.8583 87.415 89.165L86.455 91.125C86.0683 90.8717 85.6483 90.6983 85.195 90.605C84.755 90.4983 84.2883 90.445 83.795 90.445C82.475 90.445 81.4283 90.8517 80.655 91.665C79.8817 92.4783 79.495 93.6783 79.495 95.265C79.495 95.5183 79.5017 95.8183 79.515 96.165C79.5283 96.4983 79.575 96.8383 79.655 97.185L78.855 96.305C79.095 95.7583 79.4217 95.305 79.835 94.945C80.2617 94.5717 80.7617 94.2917 81.335 94.105C81.9217 93.9183 82.555 93.825 83.235 93.825C84.155 93.825 84.975 94.005 85.695 94.365C86.415 94.7117 86.9883 95.2117 87.415 95.865C87.8417 96.505 88.055 97.2583 88.055 98.125C88.055 99.045 87.8283 99.845 87.375 100.525C86.9217 101.205 86.3083 101.732 85.535 102.105C84.7617 102.478 83.895 102.665 82.935 102.665ZM82.795 100.625C83.3283 100.625 83.8017 100.532 84.215 100.345C84.6283 100.145 84.9483 99.865 85.175 99.505C85.415 99.145 85.535 98.725 85.535 98.245C85.535 97.5117 85.2817 96.9317 84.775 96.505C84.2683 96.0783 83.5883 95.865 82.735 95.865C82.175 95.865 81.6817 95.9717 81.255 96.185C80.8417 96.385 80.5083 96.665 80.255 97.025C80.015 97.385 79.895 97.7983 79.895 98.265C79.895 98.6917 80.0083 99.085 80.235 99.445C80.4617 99.805 80.7883 100.092 81.215 100.305C81.655 100.518 82.1817 100.625 82.795 100.625Z" fill="white"/>
<defs>
<filter id="filter0_f_445_1759" x="0.520117" y="0.627905" width="126.96" height="140.744" filterUnits="userSpaceOnUse" color-interpolation-filters="sRGB">
<feFlood flood-opacity="0" result="BackgroundImageFix"/>
<feBlend mode="normal" in="SourceGraphic" in2="BackgroundImageFix" result="shape"/>
<feGaussianBlur stdDeviation="5.55" result="effect1_foregroundBlur_445_1759"/>
</filter>
</defs>
</svg>
