<svg width="500" height="500" viewBox="0 0 500 500" fill="none" xmlns="http://www.w3.org/2000/svg">
<g clip-path="url(#clip0_406_1756)">
<path d="M500 0H0V500H500V0Z" fill="white"/>
<mask id="mask0_406_1756" style="mask-type:alpha" maskUnits="userSpaceOnUse" x="24" y="24" width="452" height="452">
<path d="M128.232 36.9512C131.7 36.9512 134.512 34.1394 134.512 30.6707C134.512 27.2021 131.7 24.3903 128.232 24.3903C124.763 24.3903 121.951 27.2021 121.951 30.6707C121.951 34.1394 124.763 36.9512 128.232 36.9512Z" fill="black"/>
<path d="M158.902 36.9512H146.341V30.6707C146.341 27.1118 149.063 24.3903 152.622 24.3903C156.181 24.3903 158.902 27.1118 158.902 30.6707V36.9512Z" fill="black"/>
<path d="M183.292 36.9512H177.012C173.453 36.9512 170.731 34.2297 170.731 30.6707C170.731 27.1118 173.453 24.3903 177.012 24.3903H183.292V36.9512Z" fill="black"/>
<path d="M195.488 24.3903H182.927V36.9512H195.488V24.3903Z" fill="black"/>
<path d="M207.683 36.9512H195.122V24.3903H201.403C204.962 24.3903 207.683 27.1118 207.683 30.6707V36.9512Z" fill="black"/>
<path d="M256.463 36.9512H243.902V30.6707C243.902 27.1118 246.624 24.3903 250.183 24.3903H256.463V36.9512Z" fill="black"/>
<path d="M268.659 24.3903H256.098V36.9512H268.659V24.3903Z" fill="black"/>
<path d="M280.853 24.3903H268.292V36.9512H280.853V24.3903Z" fill="black"/>
<path d="M293.049 24.3903H280.488V36.9512H293.049V24.3903Z" fill="black"/>
<path d="M298.963 36.9512H292.683V24.3903H298.963C302.522 24.3903 305.244 27.1118 305.244 30.6707C305.244 34.2297 302.522 36.9512 298.963 36.9512Z" fill="black"/>
<path d="M323.354 36.9512C326.822 36.9512 329.634 34.1394 329.634 30.6707C329.634 27.2021 326.822 24.3903 323.354 24.3903C319.885 24.3903 317.073 27.2021 317.073 30.6707C317.073 34.1394 319.885 36.9512 323.354 36.9512Z" fill="black"/>
<path d="M354.024 36.9512H341.463V30.6707C341.463 27.1118 344.185 24.3903 347.744 24.3903C351.303 24.3903 354.024 27.1118 354.024 30.6707V36.9512Z" fill="black"/>
<path d="M378.414 36.9512H365.854V30.6707C365.854 27.1118 368.575 24.3903 372.134 24.3903C375.693 24.3903 378.414 27.1118 378.414 30.6707V36.9512Z" fill="black"/>
<path d="M158.902 36.5853H146.341V49.1463H158.902V36.5853Z" fill="black"/>
<path d="M207.683 36.5853H195.122V49.1463H207.683V36.5853Z" fill="black"/>
<path d="M256.463 49.1463H250.183C246.624 49.1463 243.902 46.4248 243.902 42.8658V36.5853H256.463V49.1463Z" fill="black"/>
<path d="M268.659 36.5853H256.098V49.1463H268.659V36.5853Z" fill="black"/>
<path d="M293.049 36.5853H280.488V49.1463H293.049V36.5853Z" fill="black"/>
<path d="M341.829 49.1463H335.549C331.99 49.1463 329.268 46.4248 329.268 42.8658C329.268 39.3069 331.99 36.5853 335.549 36.5853H341.829V49.1463Z" fill="black"/>
<path d="M354.024 36.5853H341.463V49.1463H354.024V36.5853Z" fill="black"/>
<path d="M366.219 36.5853H353.658V49.1463H366.219V36.5853Z" fill="black"/>
<path d="M378.414 36.5853H365.854V49.1463H378.414V36.5853Z" fill="black"/>
<path d="M146.707 61.3415H140.426C136.868 61.3415 134.146 58.6199 134.146 55.061C134.146 51.5021 136.868 48.7805 140.426 48.7805H146.707V61.3415Z" fill="black"/>
<path d="M158.902 48.7805H146.341V61.3415H158.902V48.7805Z" fill="black"/>
<path d="M171.098 48.7805H158.537V61.3415H171.098V48.7805Z" fill="black"/>
<path d="M183.292 48.7805H170.731V61.3415H183.292V48.7805Z" fill="black"/>
<path d="M195.488 48.7805H182.927V61.3415H195.488V48.7805Z" fill="black"/>
<path d="M207.683 48.7805H195.122V61.3415H207.683V48.7805Z" fill="black"/>
<path d="M219.878 48.7805H207.317V61.3415H219.878V48.7805Z" fill="black"/>
<path d="M232.073 48.7805H219.512V61.3415H232.073V48.7805Z" fill="black"/>
<path d="M244.268 61.3415H231.707V48.7805H237.988C241.546 48.7805 244.268 51.5021 244.268 55.061V61.3415Z" fill="black"/>
<path d="M262.378 61.3415C258.819 61.3415 256.098 58.6199 256.098 55.061V48.7805H268.659V55.061C268.659 58.6199 265.937 61.3415 262.378 61.3415Z" fill="black"/>
<path d="M286.768 61.3415C283.209 61.3415 280.488 58.6199 280.488 55.061V48.7805H293.049V55.061C293.049 58.6199 290.327 61.3415 286.768 61.3415Z" fill="black"/>
<path d="M329.634 61.3415H317.073V55.061C317.073 51.5021 319.795 48.7805 323.354 48.7805C326.913 48.7805 329.634 51.5021 329.634 55.061V61.3415Z" fill="black"/>
<path d="M372.134 61.3415C368.575 61.3415 365.854 58.6199 365.854 55.061V48.7805H378.414V55.061C378.414 58.6199 375.693 61.3415 372.134 61.3415Z" fill="black"/>
<path d="M158.902 60.9756H146.341V73.5366H158.902V60.9756Z" fill="black"/>
<path d="M171.098 60.9756H158.537V73.5366H171.098V60.9756Z" fill="black"/>
<path d="M177.012 73.5366H170.731V60.9756H183.292V67.2561C183.292 70.815 180.571 73.5366 177.012 73.5366Z" fill="black"/>
<path d="M219.878 60.9756H207.317V73.5366H219.878V60.9756Z" fill="black"/>
<path d="M244.268 60.9756H231.707V73.5366H244.268V60.9756Z" fill="black"/>
<path d="M250.183 73.5366H243.902V60.9756H250.183C253.742 60.9756 256.463 63.6971 256.463 67.2561C256.463 70.815 253.742 73.5366 250.183 73.5366Z" fill="black"/>
<path d="M305.244 73.5366H292.683V67.2561C292.683 63.6971 295.404 60.9756 298.963 60.9756C302.522 60.9756 305.244 63.6971 305.244 67.2561V73.5366Z" fill="black"/>
<path d="M329.634 73.5366H323.354C319.795 73.5366 317.073 70.815 317.073 67.2561V60.9756H329.634V73.5366Z" fill="black"/>
<path d="M341.829 60.9756H329.268V73.5366H341.829V60.9756Z" fill="black"/>
<path d="M347.744 73.5366H341.463V60.9756H347.744C351.303 60.9756 354.024 63.6971 354.024 67.2561C354.024 70.815 351.303 73.5366 347.744 73.5366Z" fill="black"/>
<path d="M134.512 85.7318H121.951V79.4513C121.951 75.8923 124.673 73.1708 128.232 73.1708C131.791 73.1708 134.512 75.8923 134.512 79.4513V85.7318Z" fill="black"/>
<path d="M158.902 73.1708H146.341V85.7318H158.902V73.1708Z" fill="black"/>
<path d="M171.098 73.1708H158.537V85.7318H171.098V73.1708Z" fill="black"/>
<path d="M195.488 85.7318H182.927V79.4513C182.927 75.8923 185.648 73.1708 189.207 73.1708C192.766 73.1708 195.488 75.8923 195.488 79.4513V85.7318Z" fill="black"/>
<path d="M213.597 85.7318C210.038 85.7318 207.317 83.0102 207.317 79.4513V73.1708H219.878V79.4513C219.878 83.0102 217.156 85.7318 213.597 85.7318Z" fill="black"/>
<path d="M237.988 85.7318C234.429 85.7318 231.707 83.0102 231.707 79.4513V73.1708H244.268V79.4513C244.268 83.0102 241.546 85.7318 237.988 85.7318Z" fill="black"/>
<path d="M262.378 85.7318C265.847 85.7318 268.659 82.9199 268.659 79.4513C268.659 75.9826 265.847 73.1708 262.378 73.1708C258.91 73.1708 256.098 75.9826 256.098 79.4513C256.098 82.9199 258.91 85.7318 262.378 85.7318Z" fill="black"/>
<path d="M305.244 73.1708H292.683V85.7318H305.244V73.1708Z" fill="black"/>
<path d="M311.158 85.7318H304.878V73.1708H311.158C314.717 73.1708 317.439 75.8923 317.439 79.4513C317.439 83.0102 314.717 85.7318 311.158 85.7318Z" fill="black"/>
<path d="M134.512 85.3658H121.951V97.9268H134.512V85.3658Z" fill="black"/>
<path d="M146.707 85.3658H134.146V97.9268H146.707V85.3658Z" fill="black"/>
<path d="M158.902 85.3658H146.341V97.9268H158.902V85.3658Z" fill="black"/>
<path d="M171.098 85.3658H158.537V97.9268H171.098V85.3658Z" fill="black"/>
<path d="M183.292 85.3658H170.731V97.9268H183.292V85.3658Z" fill="black"/>
<path d="M189.207 97.9268H182.927V85.3658H195.488V91.6463C195.488 95.2053 192.766 97.9268 189.207 97.9268Z" fill="black"/>
<path d="M280.853 97.9268H268.292V91.6463C268.292 88.0874 271.014 85.3658 274.573 85.3658H280.853V97.9268Z" fill="black"/>
<path d="M293.049 85.3658H280.488V97.9268H293.049V85.3658Z" fill="black"/>
<path d="M305.244 85.3658H292.683V97.9268H305.244V85.3658Z" fill="black"/>
<path d="M366.219 97.9268H359.939C356.38 97.9268 353.658 95.2053 353.658 91.6463C353.658 88.0874 356.38 85.3658 359.939 85.3658H366.219V97.9268Z" fill="black"/>
<path d="M378.414 97.9268H365.854V85.3658H372.134C375.693 85.3658 378.414 88.0874 378.414 91.6463V97.9268Z" fill="black"/>
<path d="M128.232 110.122C124.673 110.122 121.951 107.4 121.951 103.842V97.561H134.512V103.842C134.512 107.4 131.791 110.122 128.232 110.122Z" fill="black"/>
<path d="M152.622 110.122C149.063 110.122 146.341 107.4 146.341 103.842V97.561H158.902V103.842C158.902 107.4 156.181 110.122 152.622 110.122Z" fill="black"/>
<path d="M177.012 110.122C173.453 110.122 170.731 107.4 170.731 103.842V97.561H183.292V103.842C183.292 107.4 180.571 110.122 177.012 110.122Z" fill="black"/>
<path d="M207.683 110.122H195.122V103.842C195.122 100.283 197.844 97.561 201.403 97.561C204.962 97.561 207.683 100.283 207.683 103.842V110.122Z" fill="black"/>
<path d="M232.073 110.122H219.512V103.842C219.512 100.283 222.234 97.561 225.793 97.561C229.352 97.561 232.073 100.283 232.073 103.842V110.122Z" fill="black"/>
<path d="M250.183 110.122C253.651 110.122 256.463 107.31 256.463 103.842C256.463 100.373 253.651 97.561 250.183 97.561C246.714 97.561 243.902 100.373 243.902 103.842C243.902 107.31 246.714 110.122 250.183 110.122Z" fill="black"/>
<path d="M274.573 110.122C271.014 110.122 268.292 107.4 268.292 103.842V97.561H280.853V103.842C280.853 107.4 278.132 110.122 274.573 110.122Z" fill="black"/>
<path d="M305.244 97.561H292.683V110.122H305.244V97.561Z" fill="black"/>
<path d="M323.354 110.122C326.822 110.122 329.634 107.31 329.634 103.842C329.634 100.373 326.822 97.561 323.354 97.561C319.885 97.561 317.073 100.373 317.073 103.842C317.073 107.31 319.885 110.122 323.354 110.122Z" fill="black"/>
<path d="M354.024 110.122H341.463V103.842C341.463 100.283 344.185 97.561 347.744 97.561C351.303 97.561 354.024 100.283 354.024 103.842V110.122Z" fill="black"/>
<path d="M378.414 97.561H365.854V110.122H378.414V97.561Z" fill="black"/>
<path d="M164.817 122.317C168.286 122.317 171.098 119.505 171.098 116.037C171.098 112.568 168.286 109.756 164.817 109.756C161.348 109.756 158.537 112.568 158.537 116.037C158.537 119.505 161.348 122.317 164.817 122.317Z" fill="black"/>
<path d="M195.488 122.317H189.207C185.648 122.317 182.927 119.596 182.927 116.037C182.927 112.478 185.648 109.756 189.207 109.756H195.488V122.317Z" fill="black"/>
<path d="M207.683 109.756H195.122V122.317H207.683V109.756Z" fill="black"/>
<path d="M219.878 109.756H207.317V122.317H219.878V109.756Z" fill="black"/>
<path d="M225.793 122.317H219.512V109.756H232.073V116.037C232.073 119.596 229.352 122.317 225.793 122.317Z" fill="black"/>
<path d="M293.049 122.317H286.768C283.209 122.317 280.488 119.596 280.488 116.037C280.488 112.478 283.209 109.756 286.768 109.756H293.049V122.317Z" fill="black"/>
<path d="M305.244 109.756H292.683V122.317H305.244V109.756Z" fill="black"/>
<path d="M347.744 122.317C344.185 122.317 341.463 119.596 341.463 116.037V109.756H354.024V116.037C354.024 119.596 351.303 122.317 347.744 122.317Z" fill="black"/>
<path d="M372.134 122.317C368.575 122.317 365.854 119.596 365.854 116.037V109.756H378.414V116.037C378.414 119.596 375.693 122.317 372.134 122.317Z" fill="black"/>
<path d="M49.1464 134.512H36.5854V128.232C36.5854 124.673 39.307 121.951 42.8659 121.951H49.1464V134.512Z" fill="black"/>
<path d="M61.3412 121.951H48.7803V134.512H61.3412V121.951Z" fill="black"/>
<path d="M73.5366 121.951H60.9756V134.512H73.5366V121.951Z" fill="black"/>
<path d="M85.7314 121.951H73.1704V134.512H85.7314V121.951Z" fill="black"/>
<path d="M97.9267 121.951H85.3657V134.512H97.9267V121.951Z" fill="black"/>
<path d="M110.122 121.951H97.561V134.512H110.122V121.951Z" fill="black"/>
<path d="M122.317 134.512H109.756V121.951H116.036C119.595 121.951 122.317 124.673 122.317 128.232V134.512Z" fill="black"/>
<path d="M146.707 134.512H134.146V128.232C134.146 124.673 136.868 121.951 140.426 121.951H146.707V134.512Z" fill="black"/>
<path d="M158.902 134.512H146.341V121.951H152.622C156.181 121.951 158.902 124.673 158.902 128.232V134.512Z" fill="black"/>
<path d="M177.012 134.512C180.481 134.512 183.292 131.7 183.292 128.232C183.292 124.763 180.481 121.951 177.012 121.951C173.543 121.951 170.731 124.763 170.731 128.232C170.731 131.7 173.543 134.512 177.012 134.512Z" fill="black"/>
<path d="M213.597 134.512C210.038 134.512 207.317 131.791 207.317 128.232V121.951H219.878V128.232C219.878 131.791 217.156 134.512 213.597 134.512Z" fill="black"/>
<path d="M237.988 134.512C241.456 134.512 244.268 131.7 244.268 128.232C244.268 124.763 241.456 121.951 237.988 121.951C234.519 121.951 231.707 124.763 231.707 128.232C231.707 131.7 234.519 134.512 237.988 134.512Z" fill="black"/>
<path d="M262.378 134.512C265.847 134.512 268.659 131.7 268.659 128.232C268.659 124.763 265.847 121.951 262.378 121.951C258.91 121.951 256.098 124.763 256.098 128.232C256.098 131.7 258.91 134.512 262.378 134.512Z" fill="black"/>
<path d="M298.963 134.512C295.404 134.512 292.683 131.791 292.683 128.232V121.951H305.244V128.232C305.244 131.791 302.522 134.512 298.963 134.512Z" fill="black"/>
<path d="M329.634 134.512H317.073V128.232C317.073 124.673 319.795 121.951 323.354 121.951C326.913 121.951 329.634 124.673 329.634 128.232V134.512Z" fill="black"/>
<path d="M415 134.512H402.439V128.232C402.439 124.673 405.161 121.951 408.719 121.951H415V134.512Z" fill="black"/>
<path d="M420.914 134.512H414.634V121.951H420.914C424.473 121.951 427.195 124.673 427.195 128.232C427.195 131.791 424.473 134.512 420.914 134.512Z" fill="black"/>
<path d="M469.695 134.512C473.164 134.512 475.976 131.7 475.976 128.232C475.976 124.763 473.164 121.951 469.695 121.951C466.226 121.951 463.415 124.763 463.415 128.232C463.415 131.7 466.226 134.512 469.695 134.512Z" fill="black"/>
<path d="M36.9511 146.707H24.3901V140.427C24.3901 136.868 27.1117 134.146 30.6706 134.146H36.9511V146.707Z" fill="black"/>
<path d="M49.1464 134.146H36.5854V146.707H49.1464V134.146Z" fill="black"/>
<path d="M122.317 134.146H109.756V146.707H122.317V134.146Z" fill="black"/>
<path d="M134.512 134.146H121.951V146.707H134.512V134.146Z" fill="black"/>
<path d="M146.707 134.146H134.146V146.707H146.707V134.146Z" fill="black"/>
<path d="M158.902 134.146H146.341V146.707H158.902V134.146Z" fill="black"/>
<path d="M164.817 146.707H158.537V134.146H164.817C168.376 134.146 171.098 136.868 171.098 140.427C171.098 143.986 168.376 146.707 164.817 146.707Z" fill="black"/>
<path d="M195.488 146.707H182.927V140.427C182.927 136.868 185.648 134.146 189.207 134.146C192.766 134.146 195.488 136.868 195.488 140.427V146.707Z" fill="black"/>
<path d="M250.183 146.707C253.651 146.707 256.463 143.895 256.463 140.427C256.463 136.958 253.651 134.146 250.183 134.146C246.714 134.146 243.902 136.958 243.902 140.427C243.902 143.895 246.714 146.707 250.183 146.707Z" fill="black"/>
<path d="M317.439 146.707H311.158C307.599 146.707 304.878 143.986 304.878 140.427C304.878 136.868 307.599 134.146 311.158 134.146H317.439V146.707Z" fill="black"/>
<path d="M329.634 134.146H317.073V146.707H329.634V134.146Z" fill="black"/>
<path d="M354.024 146.707H347.744C344.185 146.707 341.463 143.986 341.463 140.427C341.463 136.868 344.185 134.146 347.744 134.146H354.024V146.707Z" fill="black"/>
<path d="M366.219 134.146H353.658V146.707H366.219V134.146Z" fill="black"/>
<path d="M378.414 134.146H365.854V146.707H378.414V134.146Z" fill="black"/>
<path d="M384.329 146.707H378.049V134.146H384.329C387.888 134.146 390.61 136.868 390.61 140.427C390.61 143.986 387.888 146.707 384.329 146.707Z" fill="black"/>
<path d="M415 134.146H402.439V146.707H415V134.146Z" fill="black"/>
<path d="M439.39 146.707H426.829V140.427C426.829 136.868 429.551 134.146 433.11 134.146C436.669 134.146 439.39 136.868 439.39 140.427V146.707Z" fill="black"/>
<path d="M463.78 146.707H451.219V140.427C451.219 136.868 453.941 134.146 457.5 134.146C461.059 134.146 463.78 136.868 463.78 140.427V146.707Z" fill="black"/>
<path d="M36.9511 146.341H24.3901V158.902H36.9511V146.341Z" fill="black"/>
<path d="M49.1464 146.341H36.5854V158.902H49.1464V146.341Z" fill="black"/>
<path d="M61.3412 158.902H48.7803V146.341H55.0608C58.6197 146.341 61.3412 149.063 61.3412 152.622V158.902Z" fill="black"/>
<path d="M110.122 158.902H103.842C100.283 158.902 97.561 156.181 97.561 152.622C97.561 149.063 100.283 146.341 103.842 146.341H110.122V158.902Z" fill="black"/>
<path d="M116.036 158.902H109.756V146.341H122.317V152.622C122.317 156.181 119.595 158.902 116.036 158.902Z" fill="black"/>
<path d="M183.292 158.902H177.012C173.453 158.902 170.731 156.181 170.731 152.622C170.731 149.063 173.453 146.341 177.012 146.341H183.292V158.902Z" fill="black"/>
<path d="M189.207 158.902H182.927V146.341H195.488V152.622C195.488 156.181 192.766 158.902 189.207 158.902Z" fill="black"/>
<path d="M225.793 158.902C229.261 158.902 232.073 156.091 232.073 152.622C232.073 149.153 229.261 146.341 225.793 146.341C222.324 146.341 219.512 149.153 219.512 152.622C219.512 156.091 222.324 158.902 225.793 158.902Z" fill="black"/>
<path d="M268.659 158.902H262.378C258.819 158.902 256.098 156.181 256.098 152.622C256.098 149.063 258.819 146.341 262.378 146.341H268.659V158.902Z" fill="black"/>
<path d="M280.853 146.341H268.292V158.902H280.853V146.341Z" fill="black"/>
<path d="M293.049 146.341H280.488V158.902H293.049V146.341Z" fill="black"/>
<path d="M298.963 158.902H292.683V146.341H298.963C302.522 146.341 305.244 149.063 305.244 152.622C305.244 156.181 302.522 158.902 298.963 158.902Z" fill="black"/>
<path d="M323.354 158.902C319.795 158.902 317.073 156.181 317.073 152.622V146.341H329.634V152.622C329.634 156.181 326.913 158.902 323.354 158.902Z" fill="black"/>
<path d="M402.805 158.902H390.244V152.622C390.244 149.063 392.965 146.341 396.524 146.341H402.805V158.902Z" fill="black"/>
<path d="M415 146.341H402.439V158.902H415V146.341Z" fill="black"/>
<path d="M439.39 146.341H426.829V158.902H439.39V146.341Z" fill="black"/>
<path d="M463.78 146.341H451.219V158.902H463.78V146.341Z" fill="black"/>
<path d="M469.695 158.902H463.415V146.341H469.695C473.254 146.341 475.976 149.063 475.976 152.622C475.976 156.181 473.254 158.902 469.695 158.902Z" fill="black"/>
<path d="M30.6706 171.098C27.1117 171.098 24.3901 168.376 24.3901 164.817V158.537H36.9511V164.817C36.9511 168.376 34.2296 171.098 30.6706 171.098Z" fill="black"/>
<path d="M61.3412 158.537H48.7803V171.098H61.3412V158.537Z" fill="black"/>
<path d="M85.7314 171.098H73.1704V164.817C73.1704 161.258 75.892 158.537 79.4509 158.537H85.7314V171.098Z" fill="black"/>
<path d="M91.6462 171.098H85.3657V158.537H91.6462C95.2052 158.537 97.9267 161.258 97.9267 164.817C97.9267 168.376 95.2052 171.098 91.6462 171.098Z" fill="black"/>
<path d="M134.512 171.098H121.951V164.817C121.951 161.258 124.673 158.537 128.232 158.537H134.512V171.098Z" fill="black"/>
<path d="M140.426 171.098H134.146V158.537H140.426C143.985 158.537 146.707 161.258 146.707 164.817C146.707 168.376 143.985 171.098 140.426 171.098Z" fill="black"/>
<path d="M250.183 171.098C253.651 171.098 256.463 168.286 256.463 164.817C256.463 161.348 253.651 158.537 250.183 158.537C246.714 158.537 243.902 161.348 243.902 164.817C243.902 168.286 246.714 171.098 250.183 171.098Z" fill="black"/>
<path d="M286.768 171.098C283.209 171.098 280.488 168.376 280.488 164.817V158.537H293.049V164.817C293.049 168.376 290.327 171.098 286.768 171.098Z" fill="black"/>
<path d="M378.414 171.098H365.854V164.817C365.854 161.258 368.575 158.537 372.134 158.537C375.693 158.537 378.414 161.258 378.414 164.817V171.098Z" fill="black"/>
<path d="M402.805 158.537H390.244V171.098H402.805V158.537Z" fill="black"/>
<path d="M408.719 171.098H402.439V158.537H415V164.817C415 168.376 412.278 171.098 408.719 171.098Z" fill="black"/>
<path d="M439.39 158.537H426.829V171.098H439.39V158.537Z" fill="black"/>
<path d="M457.5 171.098C453.941 171.098 451.219 168.376 451.219 164.817V158.537H463.78V164.817C463.78 168.376 461.059 171.098 457.5 171.098Z" fill="black"/>
<path d="M49.1464 183.293H42.8659C39.307 183.293 36.5854 180.571 36.5854 177.012C36.5854 173.453 39.307 170.732 42.8659 170.732H49.1464V183.293Z" fill="black"/>
<path d="M61.3412 170.732H48.7803V183.293H61.3412V170.732Z" fill="black"/>
<path d="M73.5366 170.732H60.9756V183.293H73.5366V170.732Z" fill="black"/>
<path d="M85.7314 170.732H73.1704V183.293H85.7314V170.732Z" fill="black"/>
<path d="M103.842 183.293C107.31 183.293 110.122 180.481 110.122 177.012C110.122 173.544 107.31 170.732 103.842 170.732C100.373 170.732 97.561 173.544 97.561 177.012C97.561 180.481 100.373 183.293 103.842 183.293Z" fill="black"/>
<path d="M134.512 170.732H121.951V183.293H134.512V170.732Z" fill="black"/>
<path d="M158.902 183.293H152.622C149.063 183.293 146.341 180.571 146.341 177.012C146.341 173.453 149.063 170.732 152.622 170.732H158.902V183.293Z" fill="black"/>
<path d="M171.098 183.293H158.537V170.732H164.817C168.376 170.732 171.098 173.453 171.098 177.012V183.293Z" fill="black"/>
<path d="M195.488 183.293H189.207C185.648 183.293 182.927 180.571 182.927 177.012C182.927 173.453 185.648 170.732 189.207 170.732H195.488V183.293Z" fill="black"/>
<path d="M201.403 183.293H195.122V170.732H201.403C204.962 170.732 207.683 173.453 207.683 177.012C207.683 180.571 204.962 183.293 201.403 183.293Z" fill="black"/>
<path d="M232.073 183.293H225.793C222.234 183.293 219.512 180.571 219.512 177.012C219.512 173.453 222.234 170.732 225.793 170.732H232.073V183.293Z" fill="black"/>
<path d="M237.988 183.293H231.707V170.732H237.988C241.546 170.732 244.268 173.453 244.268 177.012C244.268 180.571 241.546 183.293 237.988 183.293Z" fill="black"/>
<path d="M262.378 183.293C265.847 183.293 268.659 180.481 268.659 177.012C268.659 173.544 265.847 170.732 262.378 170.732C258.91 170.732 256.098 173.544 256.098 177.012C256.098 180.481 258.91 183.293 262.378 183.293Z" fill="black"/>
<path d="M341.829 183.293H335.549C331.99 183.293 329.268 180.571 329.268 177.012C329.268 173.453 331.99 170.732 335.549 170.732H341.829V183.293Z" fill="black"/>
<path d="M347.744 183.293H341.463V170.732H347.744C351.303 170.732 354.024 173.453 354.024 177.012C354.024 180.571 351.303 183.293 347.744 183.293Z" fill="black"/>
<path d="M378.414 170.732H365.854V183.293H378.414V170.732Z" fill="black"/>
<path d="M396.524 183.293C392.965 183.293 390.244 180.571 390.244 177.012V170.732H402.805V177.012C402.805 180.571 400.083 183.293 396.524 183.293Z" fill="black"/>
<path d="M427.195 183.293H420.914C417.355 183.293 414.634 180.571 414.634 177.012C414.634 173.453 417.355 170.732 420.914 170.732H427.195V183.293Z" fill="black"/>
<path d="M439.39 170.732H426.829V183.293H439.39V170.732Z" fill="black"/>
<path d="M451.585 183.293H439.024V170.732H445.305C448.864 170.732 451.585 173.453 451.585 177.012V183.293Z" fill="black"/>
<path d="M469.695 183.293C473.164 183.293 475.976 180.481 475.976 177.012C475.976 173.544 473.164 170.732 469.695 170.732C466.226 170.732 463.415 173.544 463.415 177.012C463.415 180.481 466.226 183.293 469.695 183.293Z" fill="black"/>
<path d="M85.7314 195.488H79.4509C75.892 195.488 73.1704 192.766 73.1704 189.207V182.927H85.7314V195.488Z" fill="black"/>
<path d="M91.6462 195.488H85.3657V182.927H91.6462C95.2052 182.927 97.9267 185.648 97.9267 189.207C97.9267 192.766 95.2052 195.488 91.6462 195.488Z" fill="black"/>
<path d="M128.232 195.488C124.673 195.488 121.951 192.766 121.951 189.207V182.927H134.512V189.207C134.512 192.766 131.791 195.488 128.232 195.488Z" fill="black"/>
<path d="M171.098 195.488H164.817C161.258 195.488 158.537 192.766 158.537 189.207V182.927H171.098V195.488Z" fill="black"/>
<path d="M177.012 195.488H170.731V182.927H177.012C180.571 182.927 183.292 185.648 183.292 189.207C183.292 192.766 180.571 195.488 177.012 195.488Z" fill="black"/>
<path d="M378.414 195.488H372.134C368.575 195.488 365.854 192.766 365.854 189.207V182.927H378.414V195.488Z" fill="black"/>
<path d="M390.61 195.488H378.049V182.927H384.329C387.888 182.927 390.61 185.648 390.61 189.207V195.488Z" fill="black"/>
<path d="M408.719 195.488C412.188 195.488 415 192.676 415 189.207C415 185.739 412.188 182.927 408.719 182.927C405.251 182.927 402.439 185.739 402.439 189.207C402.439 192.676 405.251 195.488 408.719 195.488Z" fill="black"/>
<path d="M439.39 182.927H426.829V195.488H439.39V182.927Z" fill="black"/>
<path d="M445.305 195.488H439.024V182.927H451.585V189.207C451.585 192.766 448.864 195.488 445.305 195.488Z" fill="black"/>
<path d="M36.9511 207.683H30.6706C27.1117 207.683 24.3901 204.961 24.3901 201.402C24.3901 197.843 27.1117 195.122 30.6706 195.122H36.9511V207.683Z" fill="black"/>
<path d="M49.1464 195.122H36.5854V207.683H49.1464V195.122Z" fill="black"/>
<path d="M61.3412 195.122H48.7803V207.683H61.3412V195.122Z" fill="black"/>
<path d="M73.5366 207.683H60.9756V195.122H67.2561C70.815 195.122 73.5366 197.843 73.5366 201.402V207.683Z" fill="black"/>
<path d="M110.122 207.683H103.842C100.283 207.683 97.561 204.961 97.561 201.402C97.561 197.843 100.283 195.122 103.842 195.122H110.122V207.683Z" fill="black"/>
<path d="M122.317 207.683H109.756V195.122H116.036C119.595 195.122 122.317 197.843 122.317 201.402V207.683Z" fill="black"/>
<path d="M140.426 207.683C143.895 207.683 146.707 204.871 146.707 201.402C146.707 197.934 143.895 195.122 140.426 195.122C136.958 195.122 134.146 197.934 134.146 201.402C134.146 204.871 136.958 207.683 140.426 207.683Z" fill="black"/>
<path d="M329.634 207.683H323.354C319.795 207.683 317.073 204.961 317.073 201.402C317.073 197.843 319.795 195.122 323.354 195.122H329.634V207.683Z" fill="black"/>
<path d="M335.549 207.683H329.268V195.122H335.549C339.107 195.122 341.829 197.843 341.829 201.402C341.829 204.961 339.107 207.683 335.549 207.683Z" fill="black"/>
<path d="M359.939 207.683C363.407 207.683 366.219 204.871 366.219 201.402C366.219 197.934 363.407 195.122 359.939 195.122C356.47 195.122 353.658 197.934 353.658 201.402C353.658 204.871 356.47 207.683 359.939 207.683Z" fill="black"/>
<path d="M390.61 195.122H378.049V207.683H390.61V195.122Z" fill="black"/>
<path d="M402.805 207.683H390.244V195.122H396.524C400.083 195.122 402.805 197.843 402.805 201.402V207.683Z" fill="black"/>
<path d="M427.195 207.683H420.914C417.355 207.683 414.634 204.961 414.634 201.402C414.634 197.843 417.355 195.122 420.914 195.122H427.195V207.683Z" fill="black"/>
<path d="M433.11 207.683H426.829V195.122H439.39V201.402C439.39 204.961 436.669 207.683 433.11 207.683Z" fill="black"/>
<path d="M469.695 207.683C473.164 207.683 475.976 204.871 475.976 201.402C475.976 197.934 473.164 195.122 469.695 195.122C466.226 195.122 463.415 197.934 463.415 201.402C463.415 204.871 466.226 207.683 469.695 207.683Z" fill="black"/>
<path d="M67.2561 219.878C63.6971 219.878 60.9756 217.157 60.9756 213.598V207.317H73.5366V213.598C73.5366 217.157 70.815 219.878 67.2561 219.878Z" fill="black"/>
<path d="M91.6462 219.878C95.1148 219.878 97.9267 217.066 97.9267 213.598C97.9267 210.129 95.1148 207.317 91.6462 207.317C88.1776 207.317 85.3657 210.129 85.3657 213.598C85.3657 217.066 88.1776 219.878 91.6462 219.878Z" fill="black"/>
<path d="M122.317 219.878H116.036C112.477 219.878 109.756 217.157 109.756 213.598V207.317H122.317V219.878Z" fill="black"/>
<path d="M128.232 219.878H121.951V207.317H128.232C131.791 207.317 134.512 210.039 134.512 213.598C134.512 217.157 131.791 219.878 128.232 219.878Z" fill="black"/>
<path d="M152.622 219.878C156.09 219.878 158.902 217.066 158.902 213.598C158.902 210.129 156.09 207.317 152.622 207.317C149.153 207.317 146.341 210.129 146.341 213.598C146.341 217.066 149.153 219.878 152.622 219.878Z" fill="black"/>
<path d="M378.414 219.878H372.134C368.575 219.878 365.854 217.157 365.854 213.598C365.854 210.039 368.575 207.317 372.134 207.317H378.414V219.878Z" fill="black"/>
<path d="M390.61 207.317H378.049V219.878H390.61V207.317Z" fill="black"/>
<path d="M402.805 207.317H390.244V219.878H402.805V207.317Z" fill="black"/>
<path d="M408.719 219.878H402.439V207.317H408.719C412.278 207.317 415 210.039 415 213.598C415 217.157 412.278 219.878 408.719 219.878Z" fill="black"/>
<path d="M463.78 219.878H451.219V213.598C451.219 210.039 453.941 207.317 457.5 207.317C461.059 207.317 463.78 210.039 463.78 213.598V219.878Z" fill="black"/>
<path d="M36.9511 232.073H24.3901V225.793C24.3901 222.234 27.1117 219.512 30.6706 219.512C34.2296 219.512 36.9511 222.234 36.9511 225.793V232.073Z" fill="black"/>
<path d="M55.0608 232.073C58.5294 232.073 61.3412 229.261 61.3412 225.793C61.3412 222.324 58.5294 219.512 55.0608 219.512C51.5921 219.512 48.7803 222.324 48.7803 225.793C48.7803 229.261 51.5921 232.073 55.0608 232.073Z" fill="black"/>
<path d="M103.842 232.073C107.31 232.073 110.122 229.261 110.122 225.793C110.122 222.324 107.31 219.512 103.842 219.512C100.373 219.512 97.561 222.324 97.561 225.793C97.561 229.261 100.373 232.073 103.842 232.073Z" fill="black"/>
<path d="M140.426 232.073C143.895 232.073 146.707 229.261 146.707 225.793C146.707 222.324 143.895 219.512 140.426 219.512C136.958 219.512 134.146 222.324 134.146 225.793C134.146 229.261 136.958 232.073 140.426 232.073Z" fill="black"/>
<path d="M329.634 232.073H323.354C319.795 232.073 317.073 229.352 317.073 225.793C317.073 222.234 319.795 219.512 323.354 219.512H329.634V232.073Z" fill="black"/>
<path d="M335.549 232.073H329.268V219.512H335.549C339.107 219.512 341.829 222.234 341.829 225.793C341.829 229.352 339.107 232.073 335.549 232.073Z" fill="black"/>
<path d="M390.61 232.073H384.329C380.77 232.073 378.049 229.352 378.049 225.793V219.512H390.61V232.073Z" fill="black"/>
<path d="M396.524 232.073H390.244V219.512H402.805V225.793C402.805 229.352 400.083 232.073 396.524 232.073Z" fill="black"/>
<path d="M420.914 232.073C424.383 232.073 427.195 229.261 427.195 225.793C427.195 222.324 424.383 219.512 420.914 219.512C417.446 219.512 414.634 222.324 414.634 225.793C414.634 229.261 417.446 232.073 420.914 232.073Z" fill="black"/>
<path d="M451.585 232.073H439.024V225.793C439.024 222.234 441.746 219.512 445.305 219.512H451.585V232.073Z" fill="black"/>
<path d="M457.5 232.073H451.219V219.512H463.78V225.793C463.78 229.352 461.059 232.073 457.5 232.073Z" fill="black"/>
<path d="M30.6706 244.268C27.1117 244.268 24.3901 241.547 24.3901 237.988V231.707H36.9511V237.988C36.9511 241.547 34.2296 244.268 30.6706 244.268Z" fill="black"/>
<path d="M73.5366 244.268H67.2561C63.6971 244.268 60.9756 241.547 60.9756 237.988C60.9756 234.429 63.6971 231.707 67.2561 231.707H73.5366V244.268Z" fill="black"/>
<path d="M79.4509 244.268H73.1704V231.707H79.4509C83.0098 231.707 85.7314 234.429 85.7314 237.988C85.7314 241.547 83.0098 244.268 79.4509 244.268Z" fill="black"/>
<path d="M122.317 244.268H109.756V237.988C109.756 234.429 112.477 231.707 116.036 231.707H122.317V244.268Z" fill="black"/>
<path d="M134.512 244.268H121.951V231.707H128.232C131.791 231.707 134.512 234.429 134.512 237.988V244.268Z" fill="black"/>
<path d="M372.134 244.268C375.603 244.268 378.414 241.456 378.414 237.988C378.414 234.519 375.603 231.707 372.134 231.707C368.665 231.707 365.854 234.519 365.854 237.988C365.854 241.456 368.665 244.268 372.134 244.268Z" fill="black"/>
<path d="M408.719 244.268C412.188 244.268 415 241.456 415 237.988C415 234.519 412.188 231.707 408.719 231.707C405.251 231.707 402.439 234.519 402.439 237.988C402.439 241.456 405.251 244.268 408.719 244.268Z" fill="black"/>
<path d="M451.585 231.707H439.024V244.268H451.585V231.707Z" fill="black"/>
<path d="M42.8659 256.463C46.3346 256.463 49.1464 253.652 49.1464 250.183C49.1464 246.714 46.3346 243.902 42.8659 243.902C39.3973 243.902 36.5854 246.714 36.5854 250.183C36.5854 253.652 39.3973 256.463 42.8659 256.463Z" fill="black"/>
<path d="M110.122 256.463H103.842C100.283 256.463 97.561 253.742 97.561 250.183C97.561 246.624 100.283 243.902 103.842 243.902H110.122V256.463Z" fill="black"/>
<path d="M122.317 243.902H109.756V256.463H122.317V243.902Z" fill="black"/>
<path d="M128.232 256.463H121.951V243.902H134.512V250.183C134.512 253.742 131.791 256.463 128.232 256.463Z" fill="black"/>
<path d="M158.902 256.463H146.341V250.183C146.341 246.624 149.063 243.902 152.622 243.902H158.902V256.463Z" fill="black"/>
<path d="M171.098 256.463H158.537V243.902H164.817C168.376 243.902 171.098 246.624 171.098 250.183V256.463Z" fill="black"/>
<path d="M323.354 256.463C326.822 256.463 329.634 253.652 329.634 250.183C329.634 246.714 326.822 243.902 323.354 243.902C319.885 243.902 317.073 246.714 317.073 250.183C317.073 253.652 319.885 256.463 323.354 256.463Z" fill="black"/>
<path d="M354.024 256.463H341.463V250.183C341.463 246.624 344.185 243.902 347.744 243.902H354.024V256.463Z" fill="black"/>
<path d="M366.219 256.463H353.658V243.902H359.939C363.498 243.902 366.219 246.624 366.219 250.183V256.463Z" fill="black"/>
<path d="M402.805 256.463H390.244V250.183C390.244 246.624 392.965 243.902 396.524 243.902C400.083 243.902 402.805 246.624 402.805 250.183V256.463Z" fill="black"/>
<path d="M420.914 256.463C424.383 256.463 427.195 253.652 427.195 250.183C427.195 246.714 424.383 243.902 420.914 243.902C417.446 243.902 414.634 246.714 414.634 250.183C414.634 253.652 417.446 256.463 420.914 256.463Z" fill="black"/>
<path d="M451.585 256.463H445.305C441.746 256.463 439.024 253.742 439.024 250.183V243.902H451.585V256.463Z" fill="black"/>
<path d="M463.78 243.902H451.219V256.463H463.78V243.902Z" fill="black"/>
<path d="M469.695 256.463H463.415V243.902H469.695C473.254 243.902 475.976 246.624 475.976 250.183C475.976 253.742 473.254 256.463 469.695 256.463Z" fill="black"/>
<path d="M73.5366 268.659H60.9756V262.378C60.9756 258.819 63.6971 256.098 67.2561 256.098C70.815 256.098 73.5366 258.819 73.5366 262.378V268.659Z" fill="black"/>
<path d="M158.902 256.098H146.341V268.659H158.902V256.098Z" fill="black"/>
<path d="M164.817 268.659H158.537V256.098H171.098V262.378C171.098 265.937 168.376 268.659 164.817 268.659Z" fill="black"/>
<path d="M354.024 256.098H341.463V268.659H354.024V256.098Z" fill="black"/>
<path d="M366.219 256.098H353.658V268.659H366.219V256.098Z" fill="black"/>
<path d="M378.414 256.098H365.854V268.659H378.414V256.098Z" fill="black"/>
<path d="M390.61 256.098H378.049V268.659H390.61V256.098Z" fill="black"/>
<path d="M402.805 256.098H390.244V268.659H402.805V256.098Z" fill="black"/>
<path d="M457.5 268.659C453.941 268.659 451.219 265.937 451.219 262.378V256.098H463.78V262.378C463.78 265.937 461.059 268.659 457.5 268.659Z" fill="black"/>
<path d="M36.9511 280.854H30.6706C27.1117 280.854 24.3901 278.132 24.3901 274.573C24.3901 271.014 27.1117 268.293 30.6706 268.293H36.9511V280.854Z" fill="black"/>
<path d="M49.1464 280.854H36.5854V268.293H42.8659C46.4249 268.293 49.1464 271.014 49.1464 274.573V280.854Z" fill="black"/>
<path d="M73.5366 280.854H67.2561C63.6971 280.854 60.9756 278.132 60.9756 274.573V268.293H73.5366V280.854Z" fill="black"/>
<path d="M79.4509 280.854H73.1704V268.293H79.4509C83.0098 268.293 85.7314 271.014 85.7314 274.573C85.7314 278.132 83.0098 280.854 79.4509 280.854Z" fill="black"/>
<path d="M103.842 280.854C107.31 280.854 110.122 278.042 110.122 274.573C110.122 271.105 107.31 268.293 103.842 268.293C100.373 268.293 97.561 271.105 97.561 274.573C97.561 278.042 100.373 280.854 103.842 280.854Z" fill="black"/>
<path d="M128.232 280.854C131.7 280.854 134.512 278.042 134.512 274.573C134.512 271.105 131.7 268.293 128.232 268.293C124.763 268.293 121.951 271.105 121.951 274.573C121.951 278.042 124.763 280.854 128.232 280.854Z" fill="black"/>
<path d="M152.622 280.854C149.063 280.854 146.341 278.132 146.341 274.573V268.293H158.902V274.573C158.902 278.132 156.181 280.854 152.622 280.854Z" fill="black"/>
<path d="M183.292 280.854H170.731V274.573C170.731 271.014 173.453 268.293 177.012 268.293C180.571 268.293 183.292 271.014 183.292 274.573V280.854Z" fill="black"/>
<path d="M329.634 280.854H323.354C319.795 280.854 317.073 278.132 317.073 274.573C317.073 271.014 319.795 268.293 323.354 268.293H329.634V280.854Z" fill="black"/>
<path d="M341.829 268.293H329.268V280.854H341.829V268.293Z" fill="black"/>
<path d="M354.024 268.293H341.463V280.854H354.024V268.293Z" fill="black"/>
<path d="M359.939 280.854H353.658V268.293H366.219V274.573C366.219 278.132 363.498 280.854 359.939 280.854Z" fill="black"/>
<path d="M390.61 280.854H384.329C380.77 280.854 378.049 278.132 378.049 274.573V268.293H390.61V280.854Z" fill="black"/>
<path d="M402.805 268.293H390.244V280.854H402.805V268.293Z" fill="black"/>
<path d="M415 268.293H402.439V280.854H415V268.293Z" fill="black"/>
<path d="M427.195 268.293H414.634V280.854H427.195V268.293Z" fill="black"/>
<path d="M439.39 268.293H426.829V280.854H439.39V268.293Z" fill="black"/>
<path d="M445.305 280.854H439.024V268.293H445.305C448.864 268.293 451.585 271.014 451.585 274.573C451.585 278.132 448.864 280.854 445.305 280.854Z" fill="black"/>
<path d="M469.695 280.854C473.164 280.854 475.976 278.042 475.976 274.573C475.976 271.105 473.164 268.293 469.695 268.293C466.226 268.293 463.415 271.105 463.415 274.573C463.415 278.042 466.226 280.854 469.695 280.854Z" fill="black"/>
<path d="M49.1464 280.488H36.5854V293.049H49.1464V280.488Z" fill="black"/>
<path d="M55.0608 293.049H48.7803V280.488H55.0608C58.6197 280.488 61.3412 283.209 61.3412 286.768C61.3412 290.327 58.6197 293.049 55.0608 293.049Z" fill="black"/>
<path d="M116.036 293.049C119.505 293.049 122.317 290.237 122.317 286.768C122.317 283.3 119.505 280.488 116.036 280.488C112.568 280.488 109.756 283.3 109.756 286.768C109.756 290.237 112.568 293.049 116.036 293.049Z" fill="black"/>
<path d="M140.426 293.049C143.895 293.049 146.707 290.237 146.707 286.768C146.707 283.3 143.895 280.488 140.426 280.488C136.958 280.488 134.146 283.3 134.146 286.768C134.146 290.237 136.958 293.049 140.426 293.049Z" fill="black"/>
<path d="M171.098 293.049H164.817C161.258 293.049 158.537 290.327 158.537 286.768C158.537 283.209 161.258 280.488 164.817 280.488H171.098V293.049Z" fill="black"/>
<path d="M177.012 293.049H170.731V280.488H183.292V286.768C183.292 290.327 180.571 293.049 177.012 293.049Z" fill="black"/>
<path d="M341.829 280.488H329.268V293.049H341.829V280.488Z" fill="black"/>
<path d="M354.024 280.488H341.463V293.049H354.024V280.488Z" fill="black"/>
<path d="M408.719 293.049C405.161 293.049 402.439 290.327 402.439 286.768V280.488H415V286.768C415 290.327 412.278 293.049 408.719 293.049Z" fill="black"/>
<path d="M463.78 293.049H451.219V286.768C451.219 283.209 453.941 280.488 457.5 280.488C461.059 280.488 463.78 283.209 463.78 286.768V293.049Z" fill="black"/>
<path d="M36.9511 305.244H24.3901V298.963C24.3901 295.405 27.1117 292.683 30.6706 292.683H36.9511V305.244Z" fill="black"/>
<path d="M42.8659 305.244H36.5854V292.683H49.1464V298.963C49.1464 302.522 46.4249 305.244 42.8659 305.244Z" fill="black"/>
<path d="M85.7314 305.244H73.1704V298.963C73.1704 295.405 75.892 292.683 79.4509 292.683H85.7314V305.244Z" fill="black"/>
<path d="M97.9267 292.683H85.3657V305.244H97.9267V292.683Z" fill="black"/>
<path d="M103.842 305.244H97.561V292.683H103.842C107.4 292.683 110.122 295.405 110.122 298.963C110.122 302.522 107.4 305.244 103.842 305.244Z" fill="black"/>
<path d="M128.232 305.244C131.7 305.244 134.512 302.432 134.512 298.963C134.512 295.495 131.7 292.683 128.232 292.683C124.763 292.683 121.951 295.495 121.951 298.963C121.951 302.432 124.763 305.244 128.232 305.244Z" fill="black"/>
<path d="M341.829 292.683H329.268V305.244H341.829V292.683Z" fill="black"/>
<path d="M354.024 292.683H341.463V305.244H354.024V292.683Z" fill="black"/>
<path d="M366.219 292.683H353.658V305.244H366.219V292.683Z" fill="black"/>
<path d="M378.414 292.683H365.854V305.244H378.414V292.683Z" fill="black"/>
<path d="M390.61 292.683H378.049V305.244H390.61V292.683Z" fill="black"/>
<path d="M402.805 305.244H390.244V292.683H396.524C400.083 292.683 402.805 295.405 402.805 298.963V305.244Z" fill="black"/>
<path d="M433.11 305.244C436.578 305.244 439.39 302.432 439.39 298.963C439.39 295.495 436.578 292.683 433.11 292.683C429.641 292.683 426.829 295.495 426.829 298.963C426.829 302.432 429.641 305.244 433.11 305.244Z" fill="black"/>
<path d="M463.78 305.244H457.5C453.941 305.244 451.219 302.522 451.219 298.963V292.683H463.78V305.244Z" fill="black"/>
<path d="M475.976 305.244H463.415V292.683H469.695C473.254 292.683 475.976 295.405 475.976 298.963V305.244Z" fill="black"/>
<path d="M30.6706 317.439C27.1117 317.439 24.3901 314.717 24.3901 311.159V304.878H36.9511V311.159C36.9511 314.717 34.2296 317.439 30.6706 317.439Z" fill="black"/>
<path d="M73.5366 317.439H60.9756V311.159C60.9756 307.6 63.6971 304.878 67.2561 304.878H73.5366V317.439Z" fill="black"/>
<path d="M85.7314 304.878H73.1704V317.439H85.7314V304.878Z" fill="black"/>
<path d="M158.902 317.439H152.622C149.063 317.439 146.341 314.717 146.341 311.159C146.341 307.6 149.063 304.878 152.622 304.878H158.902V317.439Z" fill="black"/>
<path d="M171.098 317.439H158.537V304.878H164.817C168.376 304.878 171.098 307.6 171.098 311.159V317.439Z" fill="black"/>
<path d="M329.634 317.439H323.354C319.795 317.439 317.073 314.717 317.073 311.159C317.073 307.6 319.795 304.878 323.354 304.878H329.634V317.439Z" fill="black"/>
<path d="M335.549 317.439H329.268V304.878H341.829V311.159C341.829 314.717 339.107 317.439 335.549 317.439Z" fill="black"/>
<path d="M372.134 317.439C368.575 317.439 365.854 314.717 365.854 311.159V304.878H378.414V311.159C378.414 314.717 375.693 317.439 372.134 317.439Z" fill="black"/>
<path d="M402.805 304.878H390.244V317.439H402.805V304.878Z" fill="black"/>
<path d="M415 317.439H402.439V304.878H408.719C412.278 304.878 415 307.6 415 311.159V317.439Z" fill="black"/>
<path d="M475.976 304.878H463.415V317.439H475.976V304.878Z" fill="black"/>
<path d="M49.1464 329.634H36.5854V323.354C36.5854 319.795 39.307 317.073 42.8659 317.073H49.1464V329.634Z" fill="black"/>
<path d="M61.3412 317.073H48.7803V329.634H61.3412V317.073Z" fill="black"/>
<path d="M73.5366 317.073H60.9756V329.634H73.5366V317.073Z" fill="black"/>
<path d="M79.4509 329.634H73.1704V317.073H85.7314V323.354C85.7314 326.913 83.0098 329.634 79.4509 329.634Z" fill="black"/>
<path d="M103.842 329.634C107.31 329.634 110.122 326.822 110.122 323.354C110.122 319.885 107.31 317.073 103.842 317.073C100.373 317.073 97.561 319.885 97.561 323.354C97.561 326.822 100.373 329.634 103.842 329.634Z" fill="black"/>
<path d="M134.512 329.634H128.232C124.673 329.634 121.951 326.913 121.951 323.354C121.951 319.795 124.673 317.073 128.232 317.073H134.512V329.634Z" fill="black"/>
<path d="M140.426 329.634H134.146V317.073H140.426C143.985 317.073 146.707 319.795 146.707 323.354C146.707 326.913 143.985 329.634 140.426 329.634Z" fill="black"/>
<path d="M171.098 317.073H158.537V329.634H171.098V317.073Z" fill="black"/>
<path d="M183.292 329.634H170.731V317.073H177.012C180.571 317.073 183.292 319.795 183.292 323.354V329.634Z" fill="black"/>
<path d="M219.878 329.634H207.317V323.354C207.317 319.795 210.038 317.073 213.597 317.073H219.878V329.634Z" fill="black"/>
<path d="M232.073 317.073H219.512V329.634H232.073V317.073Z" fill="black"/>
<path d="M244.268 329.634H231.707V317.073H237.988C241.546 317.073 244.268 319.795 244.268 323.354V329.634Z" fill="black"/>
<path d="M298.963 329.634C302.432 329.634 305.244 326.822 305.244 323.354C305.244 319.885 302.432 317.073 298.963 317.073C295.494 317.073 292.683 319.885 292.683 323.354C292.683 326.822 295.494 329.634 298.963 329.634Z" fill="black"/>
<path d="M347.744 329.634C351.212 329.634 354.024 326.822 354.024 323.354C354.024 319.885 351.212 317.073 347.744 317.073C344.275 317.073 341.463 319.885 341.463 323.354C341.463 326.822 344.275 329.634 347.744 329.634Z" fill="black"/>
<path d="M390.61 329.634H384.329C380.77 329.634 378.049 326.913 378.049 323.354C378.049 319.795 380.77 317.073 384.329 317.073H390.61V329.634Z" fill="black"/>
<path d="M402.805 317.073H390.244V329.634H402.805V317.073Z" fill="black"/>
<path d="M415 317.073H402.439V329.634H415V317.073Z" fill="black"/>
<path d="M427.195 317.073H414.634V329.634H427.195V317.073Z" fill="black"/>
<path d="M439.39 317.073H426.829V329.634H439.39V317.073Z" fill="black"/>
<path d="M451.585 329.634H439.024V317.073H445.305C448.864 317.073 451.585 319.795 451.585 323.354V329.634Z" fill="black"/>
<path d="M469.695 329.634C466.136 329.634 463.415 326.913 463.415 323.354V317.073H475.976V323.354C475.976 326.913 473.254 329.634 469.695 329.634Z" fill="black"/>
<path d="M36.9511 341.829H24.3901V335.549C24.3901 331.99 27.1117 329.268 30.6706 329.268H36.9511V341.829Z" fill="black"/>
<path d="M49.1464 329.268H36.5854V341.829H49.1464V329.268Z" fill="black"/>
<path d="M61.3412 329.268H48.7803V341.829H61.3412V329.268Z" fill="black"/>
<path d="M73.5366 329.268H60.9756V341.829H73.5366V329.268Z" fill="black"/>
<path d="M158.902 341.829H146.341V335.549C146.341 331.99 149.063 329.268 152.622 329.268H158.902V341.829Z" fill="black"/>
<path d="M171.098 329.268H158.537V341.829H171.098V329.268Z" fill="black"/>
<path d="M183.292 329.268H170.731V341.829H183.292V329.268Z" fill="black"/>
<path d="M189.207 341.829H182.927V329.268H189.207C192.766 329.268 195.488 331.99 195.488 335.549C195.488 339.108 192.766 341.829 189.207 341.829Z" fill="black"/>
<path d="M219.878 341.829H213.597C210.038 341.829 207.317 339.108 207.317 335.549V329.268H219.878V341.829Z" fill="black"/>
<path d="M232.073 329.268H219.512V341.829H232.073V329.268Z" fill="black"/>
<path d="M244.268 329.268H231.707V341.829H244.268V329.268Z" fill="black"/>
<path d="M280.853 341.829H268.292V335.549C268.292 331.99 271.014 329.268 274.573 329.268C278.132 329.268 280.853 331.99 280.853 335.549V341.829Z" fill="black"/>
<path d="M311.158 341.829C314.627 341.829 317.439 339.017 317.439 335.549C317.439 332.08 314.627 329.268 311.158 329.268C307.69 329.268 304.878 332.08 304.878 335.549C304.878 339.017 307.69 341.829 311.158 341.829Z" fill="black"/>
<path d="M335.549 341.829C339.017 341.829 341.829 339.017 341.829 335.549C341.829 332.08 339.017 329.268 335.549 329.268C332.08 329.268 329.268 332.08 329.268 335.549C329.268 339.017 332.08 341.829 335.549 341.829Z" fill="black"/>
<path d="M366.219 341.829H353.658V335.549C353.658 331.99 356.38 329.268 359.939 329.268C363.498 329.268 366.219 331.99 366.219 335.549V341.829Z" fill="black"/>
<path d="M415 329.268H402.439V341.829H415V329.268Z" fill="black"/>
<path d="M451.585 329.268H439.024V341.829H451.585V329.268Z" fill="black"/>
<path d="M463.78 341.829H451.219V329.268H457.5C461.059 329.268 463.78 331.99 463.78 335.549V341.829Z" fill="black"/>
<path d="M36.9511 341.463H24.3901V354.024H36.9511V341.463Z" fill="black"/>
<path d="M61.3412 341.463H48.7803V354.024H61.3412V341.463Z" fill="black"/>
<path d="M67.2561 354.024H60.9756V341.463H73.5366V347.744C73.5366 351.303 70.815 354.024 67.2561 354.024Z" fill="black"/>
<path d="M97.9267 354.024H91.6462C88.0873 354.024 85.3657 351.303 85.3657 347.744C85.3657 344.185 88.0873 341.463 91.6462 341.463H97.9267V354.024Z" fill="black"/>
<path d="M103.842 354.024H97.561V341.463H103.842C107.4 341.463 110.122 344.185 110.122 347.744C110.122 351.303 107.4 354.024 103.842 354.024Z" fill="black"/>
<path d="M128.232 354.024C131.7 354.024 134.512 351.212 134.512 347.744C134.512 344.275 131.7 341.463 128.232 341.463C124.763 341.463 121.951 344.275 121.951 347.744C121.951 351.212 124.763 354.024 128.232 354.024Z" fill="black"/>
<path d="M158.902 341.463H146.341V354.024H158.902V341.463Z" fill="black"/>
<path d="M171.098 341.463H158.537V354.024H171.098V341.463Z" fill="black"/>
<path d="M183.292 341.463H170.731V354.024H183.292V341.463Z" fill="black"/>
<path d="M232.073 341.463H219.512V354.024H232.073V341.463Z" fill="black"/>
<path d="M244.268 341.463H231.707V354.024H244.268V341.463Z" fill="black"/>
<path d="M268.659 354.024H256.098V347.744C256.098 344.185 258.819 341.463 262.378 341.463H268.659V354.024Z" fill="black"/>
<path d="M274.573 354.024H268.292V341.463H280.853V347.744C280.853 351.303 278.132 354.024 274.573 354.024Z" fill="black"/>
<path d="M298.963 354.024C302.432 354.024 305.244 351.212 305.244 347.744C305.244 344.275 302.432 341.463 298.963 341.463C295.494 341.463 292.683 344.275 292.683 347.744C292.683 351.212 295.494 354.024 298.963 354.024Z" fill="black"/>
<path d="M366.219 341.463H353.658V354.024H366.219V341.463Z" fill="black"/>
<path d="M408.719 354.024C405.161 354.024 402.439 351.303 402.439 347.744V341.463H415V347.744C415 351.303 412.278 354.024 408.719 354.024Z" fill="black"/>
<path d="M451.585 354.024H445.305C441.746 354.024 439.024 351.303 439.024 347.744V341.463H451.585V354.024Z" fill="black"/>
<path d="M463.78 341.463H451.219V354.024H463.78V341.463Z" fill="black"/>
<path d="M475.976 354.024H463.415V341.463H469.695C473.254 341.463 475.976 344.185 475.976 347.744V354.024Z" fill="black"/>
<path d="M36.9511 353.659H24.3901V366.22H36.9511V353.659Z" fill="black"/>
<path d="M61.3412 353.659H48.7803V366.22H61.3412V353.659Z" fill="black"/>
<path d="M122.317 366.22H109.756V359.939C109.756 356.38 112.477 353.659 116.036 353.659C119.595 353.659 122.317 356.38 122.317 359.939V366.22Z" fill="black"/>
<path d="M158.902 366.22H152.622C149.063 366.22 146.341 363.498 146.341 359.939V353.659H158.902V366.22Z" fill="black"/>
<path d="M171.098 353.659H158.537V366.22H171.098V353.659Z" fill="black"/>
<path d="M183.292 353.659H170.731V366.22H183.292V353.659Z" fill="black"/>
<path d="M219.878 366.22H213.597C210.038 366.22 207.317 363.498 207.317 359.939C207.317 356.38 210.038 353.659 213.597 353.659H219.878V366.22Z" fill="black"/>
<path d="M232.073 353.659H219.512V366.22H232.073V353.659Z" fill="black"/>
<path d="M244.268 353.659H231.707V366.22H244.268V353.659Z" fill="black"/>
<path d="M262.378 366.22C258.819 366.22 256.098 363.498 256.098 359.939V353.659H268.659V359.939C268.659 363.498 265.937 366.22 262.378 366.22Z" fill="black"/>
<path d="M286.768 366.22C290.237 366.22 293.049 363.408 293.049 359.939C293.049 356.47 290.237 353.659 286.768 353.659C283.3 353.659 280.488 356.47 280.488 359.939C280.488 363.408 283.3 366.22 286.768 366.22Z" fill="black"/>
<path d="M323.354 366.22C326.822 366.22 329.634 363.408 329.634 359.939C329.634 356.47 326.822 353.659 323.354 353.659C319.885 353.659 317.073 356.47 317.073 359.939C317.073 363.408 319.885 366.22 323.354 366.22Z" fill="black"/>
<path d="M359.939 366.22C356.38 366.22 353.658 363.498 353.658 359.939V353.659H366.219V359.939C366.219 363.498 363.498 366.22 359.939 366.22Z" fill="black"/>
<path d="M463.78 353.659H451.219V366.22H463.78V353.659Z" fill="black"/>
<path d="M475.976 353.659H463.415V366.22H475.976V353.659Z" fill="black"/>
<path d="M30.6706 378.415C27.1117 378.415 24.3901 375.693 24.3901 372.134V365.854H36.9511V372.134C36.9511 375.693 34.2296 378.415 30.6706 378.415Z" fill="black"/>
<path d="M55.0608 378.415C51.5018 378.415 48.7803 375.693 48.7803 372.134V365.854H61.3412V372.134C61.3412 375.693 58.6197 378.415 55.0608 378.415Z" fill="black"/>
<path d="M79.4509 378.415C82.9195 378.415 85.7314 375.603 85.7314 372.134C85.7314 368.666 82.9195 365.854 79.4509 365.854C75.9823 365.854 73.1704 368.666 73.1704 372.134C73.1704 375.603 75.9823 378.415 79.4509 378.415Z" fill="black"/>
<path d="M110.122 378.415H103.842C100.283 378.415 97.561 375.693 97.561 372.134C97.561 368.575 100.283 365.854 103.842 365.854H110.122V378.415Z" fill="black"/>
<path d="M116.036 378.415H109.756V365.854H122.317V372.134C122.317 375.693 119.595 378.415 116.036 378.415Z" fill="black"/>
<path d="M140.426 378.415C143.895 378.415 146.707 375.603 146.707 372.134C146.707 368.666 143.895 365.854 140.426 365.854C136.958 365.854 134.146 368.666 134.146 372.134C134.146 375.603 136.958 378.415 140.426 378.415Z" fill="black"/>
<path d="M183.292 378.415H177.012C173.453 378.415 170.731 375.693 170.731 372.134V365.854H183.292V378.415Z" fill="black"/>
<path d="M195.488 378.415H182.927V365.854H189.207C192.766 365.854 195.488 368.575 195.488 372.134V378.415Z" fill="black"/>
<path d="M237.988 378.415C234.429 378.415 231.707 375.693 231.707 372.134V365.854H244.268V372.134C244.268 375.693 241.546 378.415 237.988 378.415Z" fill="black"/>
<path d="M274.573 378.415C278.042 378.415 280.853 375.603 280.853 372.134C280.853 368.666 278.042 365.854 274.573 365.854C271.104 365.854 268.292 368.666 268.292 372.134C268.292 375.603 271.104 378.415 274.573 378.415Z" fill="black"/>
<path d="M305.244 378.415H298.963C295.404 378.415 292.683 375.693 292.683 372.134C292.683 368.575 295.404 365.854 298.963 365.854H305.244V378.415Z" fill="black"/>
<path d="M317.439 378.415H304.878V365.854H311.158C314.717 365.854 317.439 368.575 317.439 372.134V378.415Z" fill="black"/>
<path d="M341.829 378.415H329.268V372.134C329.268 368.575 331.99 365.854 335.549 365.854H341.829V378.415Z" fill="black"/>
<path d="M354.024 378.415H341.463V365.854H347.744C351.303 365.854 354.024 368.575 354.024 372.134V378.415Z" fill="black"/>
<path d="M378.414 378.415H365.854V372.134C365.854 368.575 368.575 365.854 372.134 365.854H378.414V378.415Z" fill="black"/>
<path d="M390.61 365.854H378.049V378.415H390.61V365.854Z" fill="black"/>
<path d="M402.805 365.854H390.244V378.415H402.805V365.854Z" fill="black"/>
<path d="M415 365.854H402.439V378.415H415V365.854Z" fill="black"/>
<path d="M427.195 365.854H414.634V378.415H427.195V365.854Z" fill="black"/>
<path d="M439.39 365.854H426.829V378.415H439.39V365.854Z" fill="black"/>
<path d="M451.585 365.854H439.024V378.415H451.585V365.854Z" fill="black"/>
<path d="M463.78 365.854H451.219V378.415H463.78V365.854Z" fill="black"/>
<path d="M469.695 378.415H463.415V365.854H475.976V372.134C475.976 375.693 473.254 378.415 469.695 378.415Z" fill="black"/>
<path d="M134.512 390.61H121.951V384.329C121.951 380.77 124.673 378.049 128.232 378.049C131.791 378.049 134.512 380.77 134.512 384.329V390.61Z" fill="black"/>
<path d="M158.902 390.61H146.341V384.329C146.341 380.77 149.063 378.049 152.622 378.049C156.181 378.049 158.902 380.77 158.902 384.329V390.61Z" fill="black"/>
<path d="M195.488 390.61H189.207C185.648 390.61 182.927 387.888 182.927 384.329V378.049H195.488V390.61Z" fill="black"/>
<path d="M201.403 390.61H195.122V378.049H201.403C204.962 378.049 207.683 380.77 207.683 384.329C207.683 387.888 204.962 390.61 201.403 390.61Z" fill="black"/>
<path d="M225.793 390.61C229.261 390.61 232.073 387.798 232.073 384.329C232.073 380.861 229.261 378.049 225.793 378.049C222.324 378.049 219.512 380.861 219.512 384.329C219.512 387.798 222.324 390.61 225.793 390.61Z" fill="black"/>
<path d="M256.463 390.61H250.183C246.624 390.61 243.902 387.888 243.902 384.329C243.902 380.77 246.624 378.049 250.183 378.049H256.463V390.61Z" fill="black"/>
<path d="M262.378 390.61H256.098V378.049H262.378C265.937 378.049 268.659 380.77 268.659 384.329C268.659 387.888 265.937 390.61 262.378 390.61Z" fill="black"/>
<path d="M293.049 390.61H280.488V384.329C280.488 380.77 283.209 378.049 286.768 378.049C290.327 378.049 293.049 380.77 293.049 384.329V390.61Z" fill="black"/>
<path d="M311.158 390.61C307.599 390.61 304.878 387.888 304.878 384.329V378.049H317.439V384.329C317.439 387.888 314.717 390.61 311.158 390.61Z" fill="black"/>
<path d="M341.829 390.61H335.549C331.99 390.61 329.268 387.888 329.268 384.329V378.049H341.829V390.61Z" fill="black"/>
<path d="M354.024 378.049H341.463V390.61H354.024V378.049Z" fill="black"/>
<path d="M366.219 378.049H353.658V390.61H366.219V378.049Z" fill="black"/>
<path d="M378.414 378.049H365.854V390.61H378.414V378.049Z" fill="black"/>
<path d="M427.195 378.049H414.634V390.61H427.195V378.049Z" fill="black"/>
<path d="M134.512 390.244H121.951V402.805H134.512V390.244Z" fill="black"/>
<path d="M158.902 390.244H146.341V402.805H158.902V390.244Z" fill="black"/>
<path d="M171.098 390.244H158.537V402.805H171.098V390.244Z" fill="black"/>
<path d="M183.292 402.805H170.731V390.244H177.012C180.571 390.244 183.292 392.965 183.292 396.524V402.805Z" fill="black"/>
<path d="M219.878 402.805H207.317V396.524C207.317 392.965 210.038 390.244 213.597 390.244C217.156 390.244 219.878 392.965 219.878 396.524V402.805Z" fill="black"/>
<path d="M244.268 402.805H231.707V396.524C231.707 392.965 234.429 390.244 237.988 390.244C241.546 390.244 244.268 392.965 244.268 396.524V402.805Z" fill="black"/>
<path d="M293.049 390.244H280.488V402.805H293.049V390.244Z" fill="black"/>
<path d="M323.354 402.805C326.822 402.805 329.634 399.993 329.634 396.524C329.634 393.056 326.822 390.244 323.354 390.244C319.885 390.244 317.073 393.056 317.073 396.524C317.073 399.993 319.885 402.805 323.354 402.805Z" fill="black"/>
<path d="M354.024 390.244H341.463V402.805H354.024V390.244Z" fill="black"/>
<path d="M378.414 390.244H365.854V402.805H378.414V390.244Z" fill="black"/>
<path d="M396.524 402.805C399.993 402.805 402.805 399.993 402.805 396.524C402.805 393.056 399.993 390.244 396.524 390.244C393.056 390.244 390.244 393.056 390.244 396.524C390.244 399.993 393.056 402.805 396.524 402.805Z" fill="black"/>
<path d="M427.195 390.244H414.634V402.805H427.195V390.244Z" fill="black"/>
<path d="M433.11 402.805H426.829V390.244H433.11C436.669 390.244 439.39 392.965 439.39 396.524C439.39 400.083 436.669 402.805 433.11 402.805Z" fill="black"/>
<path d="M469.695 402.805C473.164 402.805 475.976 399.993 475.976 396.524C475.976 393.056 473.164 390.244 469.695 390.244C466.226 390.244 463.415 393.056 463.415 396.524C463.415 399.993 466.226 402.805 469.695 402.805Z" fill="black"/>
<path d="M134.512 402.439H121.951V415H134.512V402.439Z" fill="black"/>
<path d="M152.622 415C149.063 415 146.341 412.278 146.341 408.719V402.439H158.902V408.719C158.902 412.278 156.181 415 152.622 415Z" fill="black"/>
<path d="M183.292 402.439H170.731V415H183.292V402.439Z" fill="black"/>
<path d="M219.878 402.439H207.317V415H219.878V402.439Z" fill="black"/>
<path d="M232.073 402.439H219.512V415H232.073V402.439Z" fill="black"/>
<path d="M244.268 402.439H231.707V415H244.268V402.439Z" fill="black"/>
<path d="M256.463 402.439H243.902V415H256.463V402.439Z" fill="black"/>
<path d="M268.659 415H256.098V402.439H262.378C265.937 402.439 268.659 405.161 268.659 408.719V415Z" fill="black"/>
<path d="M293.049 402.439H280.488V415H293.049V402.439Z" fill="black"/>
<path d="M298.963 415H292.683V402.439H298.963C302.522 402.439 305.244 405.161 305.244 408.719C305.244 412.278 302.522 415 298.963 415Z" fill="black"/>
<path d="M354.024 402.439H341.463V415H354.024V402.439Z" fill="black"/>
<path d="M366.219 402.439H353.658V415H366.219V402.439Z" fill="black"/>
<path d="M378.414 402.439H365.854V415H378.414V402.439Z" fill="black"/>
<path d="M427.195 402.439H414.634V415H427.195V402.439Z" fill="black"/>
<path d="M134.512 414.634H121.951V427.195H134.512V414.634Z" fill="black"/>
<path d="M146.707 427.195H134.146V414.634H140.426C143.985 414.634 146.707 417.356 146.707 420.915V427.195Z" fill="black"/>
<path d="M183.292 414.634H170.731V427.195H183.292V414.634Z" fill="black"/>
<path d="M195.488 414.634H182.927V427.195H195.488V414.634Z" fill="black"/>
<path d="M207.683 414.634H195.122V427.195H207.683V414.634Z" fill="black"/>
<path d="M219.878 414.634H207.317V427.195H219.878V414.634Z" fill="black"/>
<path d="M244.268 414.634H231.707V427.195H244.268V414.634Z" fill="black"/>
<path d="M262.378 427.195C258.819 427.195 256.098 424.474 256.098 420.915V414.634H268.659V420.915C268.659 424.474 265.937 427.195 262.378 427.195Z" fill="black"/>
<path d="M293.049 414.634H280.488V427.195H293.049V414.634Z" fill="black"/>
<path d="M341.829 427.195H335.549C331.99 427.195 329.268 424.474 329.268 420.915C329.268 417.356 331.99 414.634 335.549 414.634H341.829V427.195Z" fill="black"/>
<path d="M354.024 414.634H341.463V427.195H354.024V414.634Z" fill="black"/>
<path d="M366.219 414.634H353.658V427.195H366.219V414.634Z" fill="black"/>
<path d="M378.414 414.634H365.854V427.195H378.414V414.634Z" fill="black"/>
<path d="M390.61 414.634H378.049V427.195H390.61V414.634Z" fill="black"/>
<path d="M402.805 414.634H390.244V427.195H402.805V414.634Z" fill="black"/>
<path d="M415 414.634H402.439V427.195H415V414.634Z" fill="black"/>
<path d="M427.195 414.634H414.634V427.195H427.195V414.634Z" fill="black"/>
<path d="M445.305 427.195C448.774 427.195 451.585 424.383 451.585 420.915C451.585 417.446 448.774 414.634 445.305 414.634C441.836 414.634 439.024 417.446 439.024 420.915C439.024 424.383 441.836 427.195 445.305 427.195Z" fill="black"/>
<path d="M134.512 426.829H121.951V439.39H134.512V426.829Z" fill="black"/>
<path d="M146.707 426.829H134.146V439.39H146.707V426.829Z" fill="black"/>
<path d="M158.902 426.829H146.341V439.39H158.902V426.829Z" fill="black"/>
<path d="M171.098 426.829H158.537V439.39H171.098V426.829Z" fill="black"/>
<path d="M183.292 426.829H170.731V439.39H183.292V426.829Z" fill="black"/>
<path d="M207.683 439.39H201.403C197.844 439.39 195.122 436.669 195.122 433.11V426.829H207.683V439.39Z" fill="black"/>
<path d="M219.878 426.829H207.317V439.39H219.878V426.829Z" fill="black"/>
<path d="M232.073 426.829H219.512V439.39H232.073V426.829Z" fill="black"/>
<path d="M244.268 426.829H231.707V439.39H244.268V426.829Z" fill="black"/>
<path d="M280.853 439.39H274.573C271.014 439.39 268.292 436.669 268.292 433.11C268.292 429.551 271.014 426.829 274.573 426.829H280.853V439.39Z" fill="black"/>
<path d="M293.049 426.829H280.488V439.39H293.049V426.829Z" fill="black"/>
<path d="M298.963 439.39H292.683V426.829H298.963C302.522 426.829 305.244 429.551 305.244 433.11C305.244 436.669 302.522 439.39 298.963 439.39Z" fill="black"/>
<path d="M323.354 439.39C326.822 439.39 329.634 436.578 329.634 433.11C329.634 429.641 326.822 426.829 323.354 426.829C319.885 426.829 317.073 429.641 317.073 433.11C317.073 436.578 319.885 439.39 323.354 439.39Z" fill="black"/>
<path d="M359.939 439.39C356.38 439.39 353.658 436.669 353.658 433.11V426.829H366.219V433.11C366.219 436.669 363.498 439.39 359.939 439.39Z" fill="black"/>
<path d="M402.805 439.39H396.524C392.965 439.39 390.244 436.669 390.244 433.11V426.829H402.805V439.39Z" fill="black"/>
<path d="M415 426.829H402.439V439.39H415V426.829Z" fill="black"/>
<path d="M427.195 426.829H414.634V439.39H427.195V426.829Z" fill="black"/>
<path d="M433.11 439.39H426.829V426.829H433.11C436.669 426.829 439.39 429.551 439.39 433.11C439.39 436.669 436.669 439.39 433.11 439.39Z" fill="black"/>
<path d="M457.5 439.39C460.968 439.39 463.78 436.578 463.78 433.11C463.78 429.641 460.968 426.829 457.5 426.829C454.031 426.829 451.219 429.641 451.219 433.11C451.219 436.578 454.031 439.39 457.5 439.39Z" fill="black"/>
<path d="M134.512 439.024H121.951V451.585H134.512V439.024Z" fill="black"/>
<path d="M140.426 451.585H134.146V439.024H146.707V445.305C146.707 448.864 143.985 451.585 140.426 451.585Z" fill="black"/>
<path d="M183.292 439.024H170.731V451.585H183.292V439.024Z" fill="black"/>
<path d="M195.488 451.585H182.927V439.024H189.207C192.766 439.024 195.488 441.746 195.488 445.305V451.585Z" fill="black"/>
<path d="M232.073 451.585H225.793C222.234 451.585 219.512 448.864 219.512 445.305V439.024H232.073V451.585Z" fill="black"/>
<path d="M237.988 451.585H231.707V439.024H244.268V445.305C244.268 448.864 241.546 451.585 237.988 451.585Z" fill="black"/>
<path d="M268.659 451.585H256.098V445.305C256.098 441.746 258.819 439.024 262.378 439.024C265.937 439.024 268.659 441.746 268.659 445.305V451.585Z" fill="black"/>
<path d="M293.049 439.024H280.488V451.585H293.049V439.024Z" fill="black"/>
<path d="M335.549 451.585C339.017 451.585 341.829 448.774 341.829 445.305C341.829 441.836 339.017 439.024 335.549 439.024C332.08 439.024 329.268 441.836 329.268 445.305C329.268 448.774 332.08 451.585 335.549 451.585Z" fill="black"/>
<path d="M378.414 451.585H365.854V445.305C365.854 441.746 368.575 439.024 372.134 439.024C375.693 439.024 378.414 441.746 378.414 445.305V451.585Z" fill="black"/>
<path d="M415 439.024H402.439V451.585H415V439.024Z" fill="black"/>
<path d="M445.305 451.585C448.774 451.585 451.585 448.774 451.585 445.305C451.585 441.836 448.774 439.024 445.305 439.024C441.836 439.024 439.024 441.836 439.024 445.305C439.024 448.774 441.836 451.585 445.305 451.585Z" fill="black"/>
<path d="M475.976 451.585H463.415V445.305C463.415 441.746 466.136 439.024 469.695 439.024C473.254 439.024 475.976 441.746 475.976 445.305V451.585Z" fill="black"/>
<path d="M128.232 463.78C124.673 463.78 121.951 461.059 121.951 457.5V451.219H134.512V457.5C134.512 461.059 131.791 463.78 128.232 463.78Z" fill="black"/>
<path d="M171.098 463.78H158.537V457.5C158.537 453.941 161.258 451.219 164.817 451.219H171.098V463.78Z" fill="black"/>
<path d="M183.292 451.219H170.731V463.78H183.292V451.219Z" fill="black"/>
<path d="M195.488 451.219H182.927V463.78H195.488V451.219Z" fill="black"/>
<path d="M268.659 451.219H256.098V463.78H268.659V451.219Z" fill="black"/>
<path d="M280.853 451.219H268.292V463.78H280.853V451.219Z" fill="black"/>
<path d="M293.049 451.219H280.488V463.78H293.049V451.219Z" fill="black"/>
<path d="M305.244 463.78H292.683V451.219H298.963C302.522 451.219 305.244 453.941 305.244 457.5V463.78Z" fill="black"/>
<path d="M329.634 463.78H317.073V457.5C317.073 453.941 319.795 451.219 323.354 451.219C326.913 451.219 329.634 453.941 329.634 457.5V463.78Z" fill="black"/>
<path d="M372.134 463.78C368.575 463.78 365.854 461.059 365.854 457.5V451.219H378.414V457.5C378.414 461.059 375.693 463.78 372.134 463.78Z" fill="black"/>
<path d="M402.805 463.78H390.244V457.5C390.244 453.941 392.965 451.219 396.524 451.219H402.805V463.78Z" fill="black"/>
<path d="M408.719 463.78H402.439V451.219H415V457.5C415 461.059 412.278 463.78 408.719 463.78Z" fill="black"/>
<path d="M475.976 451.219H463.415V463.78H475.976V451.219Z" fill="black"/>
<path d="M140.426 475.976C143.895 475.976 146.707 473.164 146.707 469.695C146.707 466.227 143.895 463.415 140.426 463.415C136.958 463.415 134.146 466.227 134.146 469.695C134.146 473.164 136.958 475.976 140.426 475.976Z" fill="black"/>
<path d="M171.098 475.976H164.817C161.258 475.976 158.537 473.254 158.537 469.695V463.415H171.098V475.976Z" fill="black"/>
<path d="M183.292 463.415H170.731V475.976H183.292V463.415Z" fill="black"/>
<path d="M195.488 463.415H182.927V475.976H195.488V463.415Z" fill="black"/>
<path d="M207.683 463.415H195.122V475.976H207.683V463.415Z" fill="black"/>
<path d="M213.597 475.976H207.317V463.415H213.597C217.156 463.415 219.878 466.136 219.878 469.695C219.878 473.254 217.156 475.976 213.597 475.976Z" fill="black"/>
<path d="M256.463 475.976H250.183C246.624 475.976 243.902 473.254 243.902 469.695C243.902 466.136 246.624 463.415 250.183 463.415H256.463V475.976Z" fill="black"/>
<path d="M268.659 463.415H256.098V475.976H268.659V463.415Z" fill="black"/>
<path d="M274.573 475.976H268.292V463.415H280.853V469.695C280.853 473.254 278.132 475.976 274.573 475.976Z" fill="black"/>
<path d="M298.963 475.976C295.404 475.976 292.683 473.254 292.683 469.695V463.415H305.244V469.695C305.244 473.254 302.522 475.976 298.963 475.976Z" fill="black"/>
<path d="M329.634 475.976H323.354C319.795 475.976 317.073 473.254 317.073 469.695V463.415H329.634V475.976Z" fill="black"/>
<path d="M341.829 463.415H329.268V475.976H341.829V463.415Z" fill="black"/>
<path d="M347.744 475.976H341.463V463.415H347.744C351.303 463.415 354.024 466.136 354.024 469.695C354.024 473.254 351.303 475.976 347.744 475.976Z" fill="black"/>
<path d="M390.61 475.976H384.329C380.77 475.976 378.049 473.254 378.049 469.695C378.049 466.136 380.77 463.415 384.329 463.415H390.61V475.976Z" fill="black"/>
<path d="M396.524 475.976H390.244V463.415H402.805V469.695C402.805 473.254 400.083 475.976 396.524 475.976Z" fill="black"/>
<path d="M420.914 475.976C424.383 475.976 427.195 473.164 427.195 469.695C427.195 466.227 424.383 463.415 420.914 463.415C417.446 463.415 414.634 466.227 414.634 469.695C414.634 473.164 417.446 475.976 420.914 475.976Z" fill="black"/>
<path d="M451.585 475.976H445.305C441.746 475.976 439.024 473.254 439.024 469.695C439.024 466.136 441.746 463.415 445.305 463.415H451.585V475.976Z" fill="black"/>
<path d="M463.78 463.415H451.219V475.976H463.78V463.415Z" fill="black"/>
<path d="M469.695 475.976H463.415V463.415H475.976V469.695C475.976 473.254 473.254 475.976 469.695 475.976Z" fill="black"/>
<path d="M109.756 109.756V51.2195C109.756 36.5854 97.5609 24.3903 82.9267 24.3903H51.2194C36.5853 24.3903 24.3901 36.5854 24.3901 51.2195V82.3171C24.3901 97.561 36.5853 109.756 51.2194 109.756H109.756ZM53.6584 36.5854H80.4877C89.634 36.5854 97.5609 44.5122 97.5609 53.6586V97.561H53.6584C44.5121 97.561 36.5853 89.6342 36.5853 80.4878V53.6586C36.5853 44.5122 44.5121 36.5854 53.6584 36.5854Z" fill="black"/>
<path d="M390.244 109.756H448.78C463.414 109.756 475.609 97.561 475.609 82.9268V51.2195C475.609 36.5854 463.414 24.3903 448.78 24.3903L417.683 24.3903C402.439 24.3903 390.244 36.5854 390.244 51.2195V109.756ZM463.414 53.6586V80.4878C463.414 89.6342 455.487 97.561 446.341 97.561H402.439V53.6586C402.439 44.5122 410.365 36.5854 419.512 36.5854H446.341C455.487 36.5854 463.414 44.5122 463.414 53.6586Z" fill="black"/>
<path d="M109.756 390.244H51.2194C36.5853 390.244 24.3901 402.439 24.3901 417.073L24.3901 448.78C24.3901 463.415 36.5853 475.61 51.2194 475.61H82.317C97.5609 475.61 109.756 463.415 109.756 448.78V390.244ZM36.5853 446.341V419.512C36.5853 410.366 44.5121 402.439 53.6584 402.439H97.5609V446.341C97.5609 455.488 89.634 463.415 80.4877 463.415H53.6584C44.5121 463.415 36.5853 455.488 36.5853 446.341Z" fill="black"/>
<path d="M85.3656 48.7805H48.7803V85.3659H85.3656V48.7805Z" fill="black"/>
<path d="M451.219 48.7805H414.634V85.3659H451.219V48.7805Z" fill="black"/>
<path d="M85.3656 414.634H48.7803V451.22H85.3656V414.634Z" fill="black"/>
</mask>
<g mask="url(#mask0_406_1756)">
<rect x="-242" y="-242" width="984" height="984" fill="url(#paint0_linear_406_1756)"/>
</g>
<path fill-rule="evenodd" clip-rule="evenodd" d="M205.786 224.594L196.899 250.457H200.517L209.404 224.594H205.786Z" fill="#F5A006"/>
<path d="M303.299 233.683V236.851C303.016 236.796 302.755 236.775 302.527 236.775C301.245 236.775 300.246 237.147 299.528 237.904C298.8 238.66 298.442 239.746 298.442 241.16V248.045H295.15V233.847H298.29V235.919C299.235 234.428 300.908 233.683 303.299 233.683Z" fill="black"/>
<path d="M289.88 235.722C291.293 237.082 291.988 238.825 291.988 240.941C291.988 243.068 291.282 244.822 289.88 246.182C288.468 247.541 286.675 248.221 284.469 248.221C282.307 248.221 280.525 247.541 279.102 246.182C277.69 244.811 276.973 243.068 276.973 240.941C276.973 238.814 277.679 237.071 279.102 235.722C280.515 234.362 282.307 233.683 284.469 233.683C286.664 233.683 288.468 234.362 289.88 235.722ZM288.663 240.941C288.663 239.614 288.272 238.54 287.479 237.728C286.686 236.906 285.686 236.5 284.469 236.5C283.253 236.5 282.253 236.906 281.471 237.728C280.688 238.551 280.297 239.614 280.297 240.941C280.297 242.278 280.688 243.342 281.471 244.164C282.253 244.975 283.253 245.381 284.469 245.381C285.686 245.381 286.686 244.975 287.479 244.164C288.272 243.353 288.663 242.278 288.663 240.941Z" fill="black"/>
<path d="M274.985 244.91L275.908 247.278C275.115 247.914 274.061 248.232 272.746 248.232C271.204 248.232 270.009 247.826 269.161 247.004C268.314 246.192 267.901 245.008 267.901 243.441V236.61H265.576V233.946H267.901V230.701H271.193V233.946H274.974V236.61H271.193V243.364C271.193 244.789 271.845 245.491 273.148 245.491C273.876 245.491 274.496 245.293 274.985 244.91Z" fill="black"/>
<path d="M263.229 239.713V248.045H260.111V246.313C259.285 247.585 257.818 248.221 255.678 248.221C254.102 248.221 252.831 247.826 251.875 247.037C250.908 246.247 250.441 245.228 250.441 243.967C250.441 242.695 250.908 241.664 251.853 240.897C252.799 240.119 254.276 239.735 256.297 239.735H259.937V239.526C259.937 238.529 259.643 237.761 259.057 237.235C258.47 236.698 257.59 236.435 256.427 236.435C254.7 236.435 253.288 236.906 252.158 237.838L250.865 235.437C252.375 234.275 254.363 233.683 256.819 233.683C258.894 233.683 260.48 234.187 261.577 235.185C262.675 236.193 263.229 237.696 263.229 239.713ZM259.926 243.605V241.96H256.525C254.635 241.96 253.679 242.585 253.679 243.846C253.679 244.449 253.918 244.921 254.396 245.282C254.874 245.633 255.526 245.809 256.373 245.809C257.199 245.809 257.927 245.622 258.579 245.239C259.209 244.866 259.665 244.307 259.926 243.605Z" fill="black"/>
<path d="M247.725 245.918C246.443 247.464 244.552 248.232 242.054 248.232C239.718 248.232 237.838 247.563 236.415 246.192C234.991 244.833 234.285 243.09 234.285 240.941C234.285 238.836 234.97 237.092 236.339 235.733C237.708 234.362 239.457 233.683 241.554 233.683C243.629 233.683 245.335 234.352 246.671 235.7C248.007 237.049 248.67 238.825 248.67 241.018C248.67 241.248 248.648 241.577 248.616 242.004H245.954H237.566C237.762 243.057 238.262 243.879 239.077 244.493C239.891 245.107 240.913 245.414 242.119 245.414C243.672 245.414 244.944 244.899 245.943 243.868L247.725 245.918ZM237.545 239.801H245.53C245.389 238.77 244.954 237.937 244.237 237.301C243.52 236.665 242.618 236.347 241.543 236.347C240.489 236.347 239.598 236.665 238.87 237.29C238.153 237.915 237.708 238.759 237.545 239.801Z" fill="black"/>
<path d="M232.775 233.683V236.851C232.492 236.796 232.231 236.775 232.003 236.775C230.721 236.775 229.722 237.147 229.005 237.904C228.277 238.66 227.918 239.746 227.918 241.16V248.045H224.626V233.847H227.766V235.919C228.711 234.428 230.384 233.683 232.775 233.683Z" fill="black"/>
<path d="M221.79 236.983L219.248 238.474C218.433 237.158 217.271 236.5 215.75 236.5C214.511 236.5 213.501 236.906 212.686 237.706C211.871 238.518 211.469 239.592 211.469 240.941C211.469 242.289 211.871 243.364 212.664 244.175C213.457 244.986 214.489 245.381 215.739 245.381C217.271 245.381 218.433 244.734 219.237 243.419L221.769 244.899C221.225 245.962 220.421 246.785 219.378 247.366C218.335 247.947 217.129 248.232 215.75 248.232C213.511 248.232 211.697 247.552 210.274 246.192C208.84 244.822 208.133 243.079 208.133 240.952C208.133 238.825 208.84 237.082 210.274 235.733C211.697 234.373 213.522 233.694 215.75 233.694C217.14 233.694 218.357 233.979 219.4 234.538C220.476 235.108 221.258 235.919 221.79 236.983Z" fill="black"/>
<path d="M301.103 263.11L296.442 273.624C296.073 274.512 295.628 275.126 295.139 275.499C294.639 275.872 294.052 276.047 293.346 276.047C292.9 276.047 292.477 275.981 292.086 275.839C291.694 275.696 291.358 275.488 291.075 275.192L291.662 274.249C292.14 274.72 292.705 274.962 293.368 274.962C293.791 274.962 294.15 274.841 294.454 274.611C294.758 274.37 295.041 273.964 295.291 273.394L295.704 272.484L291.542 263.11H292.846L296.345 271.091L299.843 263.11H301.103Z" fill="black"/>
<path d="M290.032 267.046V272.495H288.772V267.177C288.772 266.201 288.544 265.456 288.077 264.941C287.609 264.425 286.958 264.173 286.099 264.173C285.132 264.173 284.372 264.469 283.818 265.072C283.264 265.675 282.992 266.508 282.992 267.561V272.484H281.732V267.166C281.732 266.191 281.493 265.445 281.025 264.93C280.558 264.414 279.895 264.162 279.037 264.162C278.081 264.162 277.32 264.458 276.766 265.061C276.212 265.664 275.93 266.498 275.93 267.55V272.473H274.669V263.088H275.875V264.798C276.201 264.228 276.669 263.789 277.255 263.482C277.842 263.175 278.526 263.022 279.298 263.022C280.069 263.022 280.743 263.186 281.319 263.526C281.884 263.855 282.318 264.349 282.601 265.006C282.948 264.381 283.437 263.899 284.078 263.548C284.719 263.197 285.458 263.022 286.284 263.022C287.457 263.022 288.37 263.362 289.033 264.042C289.706 264.732 290.032 265.73 290.032 267.046Z" fill="black"/>
<path d="M272.116 267.802L272.106 268.197H264.315C264.392 269.173 264.761 269.962 265.435 270.565C266.097 271.168 266.956 271.464 267.977 271.464C268.564 271.464 269.085 271.365 269.574 271.157C270.063 270.949 270.476 270.642 270.834 270.236L271.541 271.058C271.128 271.563 270.606 271.947 269.987 272.199C269.368 272.462 268.683 272.593 267.944 272.593C266.988 272.593 266.141 272.385 265.402 271.979C264.663 271.574 264.087 271.004 263.674 270.28C263.262 269.556 263.055 268.734 263.055 267.813C263.055 266.892 263.262 266.07 263.653 265.346C264.044 264.623 264.598 264.053 265.282 263.647C265.967 263.241 266.749 263.033 267.608 263.033C268.466 263.033 269.237 263.241 269.922 263.647C270.606 264.053 271.139 264.612 271.53 265.335C271.921 266.048 272.116 266.87 272.116 267.802ZM264.315 267.254H270.921C270.834 266.322 270.487 265.577 269.878 264.995C269.27 264.414 268.509 264.129 267.608 264.129C266.706 264.129 265.956 264.414 265.359 264.995C264.739 265.566 264.402 266.311 264.315 267.254Z" fill="black"/>
<path d="M260.491 259.25V272.495H259.296V270.642C258.916 271.267 258.416 271.749 257.797 272.089C257.177 272.418 256.482 272.593 255.7 272.593C254.831 272.593 254.037 272.385 253.331 271.99C252.625 271.585 252.071 271.015 251.669 270.291C251.278 269.567 251.071 268.745 251.071 267.813C251.071 266.881 251.278 266.059 251.669 265.324C252.071 264.601 252.636 264.042 253.331 263.647C254.037 263.252 254.831 263.044 255.7 263.044C256.449 263.044 257.134 263.208 257.742 263.515C258.351 263.833 258.851 264.294 259.231 264.897V259.261H260.491V259.25ZM259.253 267.802C259.253 267.09 259.1 266.443 258.796 265.894C258.492 265.335 258.079 264.897 257.558 264.601C257.036 264.294 256.449 264.14 255.797 264.14C255.135 264.14 254.548 264.294 254.016 264.601C253.494 264.897 253.081 265.335 252.777 265.894C252.473 266.454 252.321 267.09 252.321 267.802C252.321 268.515 252.473 269.151 252.777 269.71C253.081 270.269 253.483 270.697 254.016 271.004C254.548 271.311 255.135 271.464 255.797 271.464C256.439 271.464 257.036 271.311 257.558 271.004C258.079 270.697 258.503 270.269 258.796 269.71C259.111 269.151 259.253 268.515 259.253 267.802Z" fill="black"/>
<path d="M248.551 266.673V272.495H247.345V271.037C247.062 271.519 246.649 271.903 246.095 272.177C245.552 272.44 244.9 272.582 244.139 272.582C243.107 272.582 242.282 272.341 241.662 271.837C241.054 271.333 240.739 270.675 240.739 269.852C240.739 269.052 241.021 268.416 241.597 267.923C242.162 267.44 243.075 267.188 244.324 267.188H247.279V266.618C247.279 265.818 247.062 265.193 246.606 264.765C246.16 264.349 245.508 264.14 244.65 264.14C244.053 264.14 243.498 264.239 242.944 264.425C242.401 264.634 241.934 264.897 241.543 265.248L240.978 264.294C241.445 263.888 242.01 263.581 242.673 263.362C243.335 263.143 244.031 263.033 244.759 263.033C245.976 263.033 246.91 263.34 247.551 263.954C248.225 264.568 248.551 265.478 248.551 266.673ZM247.29 269.677V268.142H244.368C242.77 268.142 241.988 268.701 241.988 269.82C241.988 270.368 242.195 270.806 242.608 271.113C243.02 271.431 243.596 271.585 244.335 271.585C245.041 271.585 245.65 271.42 246.16 271.102C246.671 270.762 247.04 270.291 247.29 269.677Z" fill="black"/>
<path d="M239.066 264.886L238.12 265.533C237.816 265.072 237.425 264.721 236.958 264.491C236.48 264.261 235.969 264.14 235.415 264.14C234.752 264.14 234.133 264.294 233.6 264.601C233.057 264.897 232.644 265.335 232.34 265.895C232.036 266.454 231.884 267.09 231.884 267.802C231.884 268.526 232.036 269.162 232.34 269.721C232.644 270.269 233.057 270.697 233.6 271.004C234.133 271.311 234.741 271.464 235.415 271.464C235.98 271.464 236.48 271.344 236.958 271.124C237.425 270.905 237.816 270.554 238.12 270.094L239.066 270.741C238.696 271.355 238.196 271.815 237.555 272.122C236.925 272.44 236.208 272.593 235.415 272.593C234.491 272.593 233.677 272.385 232.949 271.99C232.221 271.585 231.645 271.015 231.243 270.28C230.83 269.545 230.624 268.723 230.624 267.813C230.624 266.892 230.83 266.07 231.243 265.346C231.656 264.623 232.232 264.053 232.949 263.647C233.677 263.241 234.491 263.033 235.415 263.033C236.219 263.033 236.936 263.197 237.566 263.504C238.207 263.822 238.696 264.283 239.066 264.886Z" fill="black"/>
<path d="M224.203 259.996L229.863 272.495H228.483L226.995 269.151H220.096L218.607 272.495H217.249L222.91 259.996H224.203ZM226.528 268.087L223.551 261.377L220.574 268.087H226.528Z" fill="black"/>
<path d="M212.512 259.996V261.147H208.155V272.495H206.851V261.147H202.495V259.996H212.512Z" fill="black"/>
<path d="M200.408 259.996H199.094V272.495H200.408V259.996Z" fill="black"/>
</g>
<defs>
<linearGradient id="paint0_linear_406_1756" x1="250" y1="-242" x2="250" y2="742" gradientUnits="userSpaceOnUse">
<stop stop-color="#F5A006"/>
<stop offset="1" stop-color="#FF6B00"/>
</linearGradient>
<clipPath id="clip0_406_1756">
<rect width="500" height="500" fill="white"/>
</clipPath>
</defs>
</svg>
